<?xml version="1.0" encoding="utf-8"?>
<!-- Generator: Adobe Illustrator 16.0.3, SVG Export Plug-In . SVG Version: 6.00 Build 0)  -->
<!DOCTYPE svg PUBLIC "-//W3C//DTD SVG 1.1//EN" "http://www.w3.org/Graphics/SVG/1.1/DTD/svg11.dtd">
<svg version="1.1" id="Layer_1" xmlns="http://www.w3.org/2000/svg" xmlns:xlink="http://www.w3.org/1999/xlink" x="0px" y="0px"
	 width="58px" height="58px" viewBox="0 0 58 58" enable-background="new 0 0 58 58" xml:space="preserve">
<path fill="#F9F9F9" d="M14.367,29.206c-0.031,0.047-0.088,0.129-0.158,0.231c-2.585,3.758-6.263,7.447-6.067,8.758
	c0.007,0.048,0.048,0.268,0.162,0.537c0.643,1.531,2.475,1.898,2.885,1.98c0.379,0.076,0.615,0.039,0.811-0.06
	c0.146-0.073,0.276-0.188,0.387-0.353c0.02-0.029,0.096-0.119,0.168-0.242c0.303-0.52,1.592-3.338,1.65-5.067
	c0.003-0.106,0.002-0.204,0.002-0.204c-0.102-0.471-0.171-0.945-0.214-1.425c-0.083-0.909-0.05-1.813,0.086-2.715
	C14.154,30.16,14.261,29.684,14.367,29.206z"/>
<path fill="#F9F9F9" d="M10.9,41.037c-1.217-0.291-2.267-0.824-2.892-1.963C7.967,39,7.929,39,7.873,39.055
	c-0.098,0.096-0.165,0.203-0.192,0.322c-0.002,0.014-0.024,0.125-0.001,0.25C7.845,40.534,8.5,41.074,8.5,41.074
	s0.659,0.543,2.094,0.5c0.062-0.002,0.144-0.012,0.219-0.062c0.099-0.065,0.141-0.161,0.183-0.308
	C11.029,41.087,11.013,41.063,10.9,41.037z"/>
<path fill="#F9F9F9" d="M26.698,42.459c-1.157-0.717-2.403-0.941-3.738-0.635c-0.661,0.152-1.28,0.402-1.776,0.878
	c-0.355,0.34-0.336,0.624,0.044,0.939c0.22,0.183,0.463,0.335,0.704,0.489c0.763,0.49,1.577,0.822,2.471,0.803
	c0.217,0.01,0.396-0.006,0.573-0.033c0.872-0.137,1.625-0.519,2.278-1.091c0.27-0.237,0.275-0.481,0.071-0.774
	C27.158,42.799,26.944,42.611,26.698,42.459z"/>
<path fill="#F9F9F9" d="M36.381,42.385c-1.256-0.696-2.571-0.825-3.938-0.382c-0.629,0.204-1.2,0.514-1.658,0.995
	c-0.375,0.393-0.334,0.708,0.117,1.008c0.29,0.193,0.604,0.342,0.916,0.492c0.615,0.299,1.256,0.495,1.957,0.479
	c0.338,0.014,0.676-0.031,1.009-0.119c0.836-0.219,1.527-0.673,2.11-1.291c0.207-0.221,0.219-0.435,0.056-0.678
	C36.807,42.674,36.609,42.511,36.381,42.385z"/>
<path fill="#F9F9F9" d="M15.542,18.308c0.034,0.033,0.068,0.067,0.101,0.101c0.185,0.197,0.187,0.201,0.402,0.042
	c0.566-0.419,1.074-0.907,1.584-1.389c0.438-0.412,0.866-0.834,1.252-1.296c0.053-0.063,0.113-0.123,0.132-0.197
	c0-0.057-0.032-0.084-0.062-0.114c-0.075-0.076-0.152-0.151-0.229-0.226c-0.205-0.203-0.21-0.209-0.434-0.031
	c-0.998,0.798-1.92,1.675-2.774,2.623C15.297,18.064,15.305,18.073,15.542,18.308z"/>
<path fill="#F9F9F9" d="M15.458,25.114c0.479,0.87,1.222,1.46,2.102,1.898c1.175,0.585,2.443,0.866,3.731,1.064
	c1.697,0.261,3.411,0.344,5.125,0.385c0.918,0.022,1.836,0.003,2.754,0.003c1.794,0.019,3.587,0.005,5.378-0.127
	c1.034-0.076,2.064-0.182,3.085-0.369c1.116-0.205,2.208-0.492,3.226-1.012c1.74-0.89,2.63-2.289,2.604-4.231
	c-0.019-1.347-0.439-2.575-1.151-3.714c-0.031-0.05-0.069-0.093-0.118-0.131c-0.339-0.264-0.664-0.545-0.979-0.836
	c-0.635-0.586-1.264-1.177-1.824-1.835c-0.046-0.054-0.119-0.111-0.102-0.179c0.023-0.096-0.03-0.123-0.09-0.163
	c-0.345-0.236-0.698-0.46-1.063-0.664c-2.434-1.354-5.067-2.017-7.841-2.155c-2.184-0.109-4.334,0.112-6.437,0.729
	c-1.538,0.452-2.988,1.09-4.329,1.964c-0.043,0.028-0.103,0.045-0.117,0.104c-0.033,0.14-0.134,0.235-0.223,0.338
	c-0.662,0.759-1.39,1.453-2.143,2.124c-0.231,0.206-0.46,0.416-0.727,0.578c-0.075,0.046-0.132,0.097-0.178,0.168
	c-0.809,1.273-1.266,2.645-1.194,4.161C14.976,23.881,15.131,24.522,15.458,25.114z M36.227,21.454
	c0.017-0.75,0.044-1.5,0.285-2.222c0.031-0.095,0.068-0.189,0.111-0.279c0.336-0.707,0.919-0.896,1.611-0.512
	c0.756,0.418,1.232,1.074,1.541,1.854c0.538,1.358,0.137,3.123-0.931,4.086c-0.338,0.305-0.726,0.506-1.21,0.405
	c-0.311-0.064-0.535-0.257-0.715-0.502c-0.375-0.506-0.525-1.094-0.618-1.699C36.244,22.21,36.217,21.833,36.227,21.454z
	 M20.093,18.742c0.249-0.162,0.53-0.256,0.834-0.225c0.44,0.045,0.682,0.34,0.853,0.705c0.187,0.401,0.274,0.831,0.321,1.265
	c0.081,0.759,0.115,1.52,0.005,2.28c-0.083,0.583-0.217,1.152-0.542,1.655c-0.265,0.412-0.615,0.699-1.151,0.644
	c-0.362-0.038-0.656-0.222-0.91-0.464c-0.615-0.585-0.928-1.321-1.071-2.138c-0.037-0.209-0.047-0.422-0.054-0.64
	C18.448,20.527,18.966,19.469,20.093,18.742z"/>
<path fill="#F9F9F9" d="M42.429,18.426c0.329,0.27,0.335,0.264,0.636-0.034c0.248-0.245,0.248-0.245,0.012-0.514
	c-0.58-0.664-1.226-1.266-1.877-1.86c-0.29-0.266-0.585-0.525-0.904-0.757c-0.063-0.045-0.129-0.083-0.184-0.119
	c-0.064-0.003-0.088,0.035-0.118,0.063c-0.094,0.09-0.177,0.195-0.282,0.273c-0.15,0.113-0.125,0.207-0.016,0.332
	C40.53,16.76,41.449,17.624,42.429,18.426z"/>
<path fill="#F9F9F9" d="M43.633,29.206c0.106,0.478,0.213,0.954,0.286,1.439c0.136,0.901,0.169,1.806,0.086,2.716
	c-0.044,0.479-0.112,0.954-0.214,1.424c0,0-0.002,0.098,0.002,0.204c0.059,1.729,1.348,4.549,1.65,5.067
	c0.072,0.123,0.148,0.213,0.168,0.242c0.111,0.165,0.242,0.279,0.388,0.353c0.195,0.098,0.431,0.136,0.812,0.06
	c0.411-0.082,2.243-0.449,2.885-1.98c0.114-0.271,0.154-0.49,0.162-0.537c0.195-1.309-3.482-5-6.068-8.758
	C43.72,29.335,43.664,29.254,43.633,29.206z"/>
<path fill="#F9F9F9" d="M47.1,41.037c-0.113,0.027-0.129,0.05-0.096,0.168c0.041,0.147,0.084,0.243,0.183,0.309
	c0.075,0.051,0.157,0.061,0.219,0.063c1.435,0.041,2.094-0.502,2.094-0.502s0.654-0.539,0.821-1.446
	c0.021-0.124,0.002-0.237-0.002-0.25c-0.027-0.119-0.094-0.226-0.191-0.323c-0.057-0.055-0.094-0.053-0.135,0.021
	C49.366,40.213,48.316,40.746,47.1,41.037z"/>
<path fill="#F9F9F9" d="M42.829,27.848c-0.107-0.363-0.2-0.729-0.364-1.074c-0.063-0.132-0.133-0.155-0.242-0.046
	c-0.101,0.102-0.203,0.202-0.313,0.292c-0.809,0.664-1.751,1.062-2.75,1.347c-1.582,0.451-3.206,0.625-4.84,0.74
	c-1.131,0.079-2.264,0.117-3.398,0.133c-1.632,0.022-3.264,0.002-4.896-0.048c-1.319-0.04-2.636-0.105-3.946-0.262
	c-1.018-0.122-2.027-0.293-3.009-0.592c-1.196-0.364-2.308-0.87-3.141-1.839c-0.106-0.124-0.178-0.104-0.248,0.053
	c-0.13,0.293-0.232,0.596-0.322,0.902c-0.272,0.931-0.553,1.859-0.671,2.824c-0.143,1.165-0.132,2.337-0.041,3.503
	c0.105,1.343,0.476,2.623,1.001,3.862c0.649,1.532,1.559,2.898,2.697,4.12c0.451,0.483,0.894,0.982,1.605,1.098
	c0.064,0.012,0.127,0.035,0.191,0.052c0.281,0.079,0.279,0.077,0.4-0.174c0.042-0.085,0.095-0.165,0.155-0.237
	c0.19-0.234,0.429-0.414,0.688-0.565c1.308-0.757,2.698-0.889,4.145-0.487c0.754,0.209,1.449,0.537,1.996,1.11
	c0.24,0.251,0.417,0.54,0.382,0.905c-0.013,0.131,0.035,0.157,0.158,0.157c0.576-0.003,1.153-0.004,1.728,0.01
	c0.189,0.005,0.305-0.011,0.285-0.243c-0.01-0.113,0.057-0.228,0.111-0.334c0.152-0.299,0.385-0.529,0.651-0.724
	c1.187-0.862,2.515-1.192,3.974-0.969c0.724,0.111,1.408,0.343,2.01,0.767c0.29,0.206,0.553,0.445,0.652,0.801
	c0.033,0.117,0.08,0.139,0.189,0.105c0.258-0.08,0.516-0.158,0.776-0.226c0.228-0.059,0.411-0.18,0.579-0.339
	c0.684-0.643,1.311-1.334,1.854-2.094c1.741-2.439,2.653-5.141,2.63-8.134c-0.003-0.526-0.006-1.053-0.063-1.577
	C43.338,29.706,43.103,28.773,42.829,27.848z M35.895,35.636c-0.329-0.009-0.659-0.007-0.988-0.021
	c-0.145-0.006-0.227,0.023-0.232,0.188c-0.018,0.543-0.144,1.075-0.209,1.613c-0.021,0.178-0.211,0.328-0.429,0.345
	c-0.538,0.04-1.075,0.077-1.614,0.108c-1.029,0.061-2.059,0.135-3.089,0.164C28.724,38.051,28.11,38,27.5,37.971
	c-0.527-0.023-1.053-0.059-1.579-0.092c-0.55-0.035-1.101-0.071-1.65-0.111c-0.209-0.015-0.307-0.106-0.365-0.33
	c-0.126-0.486-0.212-0.98-0.286-1.478c-0.038-0.253-0.04-0.267-0.272-0.217c-0.172,0.038-0.241-0.021-0.258-0.2
	c-0.035-0.375-0.046-0.375,0.344-0.408c0.394-0.033,0.789-0.064,1.182-0.101c0.116-0.011,0.156,0.023,0.167,0.142
	c0.036,0.426,0.041,0.425-0.375,0.477c-0.219,0.026-0.221,0.026-0.182,0.252c0.064,0.371,0.133,0.743,0.198,1.115
	c0.019,0.109,0.057,0.178,0.192,0.185c1.275,0.066,2.55,0.149,3.826,0.206c1.007,0.045,2.014-0.023,3.02-0.092
	c0.681-0.046,1.364-0.08,2.046-0.121c0.072-0.004,0.145-0.016,0.216-0.015c0.116,0.001,0.17-0.053,0.187-0.166
	c0.061-0.409,0.128-0.816,0.162-1.229c0.012-0.141-0.035-0.186-0.18-0.183c-0.342,0.01-0.684,0-1.025,0.006
	c-0.127,0.002-0.168-0.043-0.164-0.165c0.012-0.53-0.063-0.433,0.428-0.438c0.414-0.004,0.827,0,1.241,0v0.024
	c0.492,0,0.984,0.003,1.477-0.002c0.143-0.001,0.216,0.03,0.185,0.192c-0.016,0.085-0.002,0.176,0.006,0.264
	C36.047,35.591,36.006,35.639,35.895,35.636z M35.661,34.509c-0.882,0-1.765-0.003-2.647,0.003
	c-0.155,0.001-0.223-0.027-0.217-0.203c0.014-0.401,0.005-0.401,0.413-0.401c0.282,0,0.563-0.005,0.846,0.002
	c0.128,0.003,0.167-0.042,0.163-0.165c-0.01-0.206-0.01-0.414,0-0.62c0.006-0.138-0.037-0.184-0.182-0.186
	c-0.701-0.007-1.404-0.022-2.105-0.036c-0.223-0.005-0.443-0.021-0.666-0.021c-0.115,0-0.166-0.035-0.156-0.154
	c0.005-0.045,0.033-0.119-0.043-0.133c-0.074-0.012-0.105,0.057-0.119,0.112c-0.045,0.196-0.087,0.392-0.119,0.59
	c-0.018,0.103-0.047,0.146-0.163,0.116c-0.085-0.02-0.188-0.033-0.267-0.005c-0.193,0.071-0.222-0.044-0.25-0.183
	c-0.033-0.172-0.057-0.348-0.136-0.55c-0.076,0.237-0.145,0.438-0.206,0.642c-0.031,0.107-0.076,0.165-0.201,0.109
	c-0.096-0.045-0.203-0.04-0.3-0.009c-0.116,0.038-0.152-0.013-0.174-0.109c-0.044-0.194-0.089-0.388-0.145-0.623
	c-0.109,0.23-0.158,0.435-0.216,0.634c-0.031,0.105-0.077,0.148-0.193,0.104c-0.096-0.036-0.204-0.038-0.3,0
	c-0.121,0.049-0.161-0.008-0.189-0.109c-0.053-0.191-0.113-0.381-0.169-0.57c-0.014,0.003-0.028,0.006-0.042,0.008
	c-0.044,0.184-0.089,0.366-0.132,0.55c-0.021,0.093-0.056,0.146-0.172,0.114c-0.103-0.028-0.215-0.03-0.319,0.012
	c-0.11,0.043-0.15-0.009-0.176-0.104c-0.048-0.171-0.102-0.34-0.157-0.509c-0.024-0.073-0.058-0.16-0.153-0.145
	c-0.098,0.016-0.049,0.107-0.049,0.162c0.002,0.153-0.119,0.131-0.203,0.139c-0.37,0.031-0.741,0.053-1.111,0.08
	c-0.424,0.03-0.848,0.068-1.273,0.094c-0.13,0.008-0.161,0.064-0.152,0.18c0.017,0.218,0.032,0.436,0.035,0.654
	c0.002,0.119,0.049,0.154,0.163,0.145c0.448-0.033,0.898-0.051,1.346-0.096c0.478-0.048,0.473-0.058,0.532,0.4
	c0.016,0.123-0.019,0.174-0.146,0.183c-0.515,0.032-1.029,0.069-1.542,0.104c-0.819,0.057-1.639,0.112-2.458,0.172
	c-0.106,0.008-0.149-0.024-0.159-0.133c-0.038-0.467-0.042-0.473,0.43-0.518c0.346-0.033,0.693-0.057,1.04-0.072
	c0.126-0.006,0.166-0.051,0.159-0.172c-0.018-0.288-0.03-0.578-0.038-0.866c-0.003-0.088,0.009-0.177,0.024-0.265
	c0.033-0.19,0.146-0.295,0.336-0.311c0.819-0.061,1.639-0.12,2.457-0.178c0.266-0.019,0.271-0.018,0.315-0.281
	c0.02-0.117,0.047-0.232,0.063-0.349c0.016-0.118,0.072-0.173,0.194-0.136c0.103,0.032,0.207,0.021,0.301-0.016
	c0.136-0.053,0.185,0.004,0.215,0.123c0.029,0.11,0.068,0.22,0.14,0.33c0.042-0.168,0.088-0.335,0.12-0.504
	c0.021-0.106,0.075-0.143,0.176-0.121c0.119,0.026,0.24,0.029,0.356-0.008c0.116-0.035,0.151,0.024,0.178,0.112
	c0.067,0.227,0.134,0.452,0.217,0.731c0.085-0.268,0.162-0.486,0.223-0.709c0.033-0.12,0.081-0.174,0.214-0.129
	c0.096,0.031,0.199,0.047,0.301,0.01c0.135-0.049,0.183,0.023,0.207,0.141c0.037,0.172,0.079,0.342,0.127,0.552
	c0.105-0.202,0.146-0.386,0.197-0.564c0.039-0.136,0.104-0.19,0.246-0.135c0.049,0.019,0.11,0.034,0.158,0.021
	c0.214-0.058,0.362-0.028,0.351,0.268c0.06-0.106,0.128-0.118,0.206-0.11c0.119,0.013,0.241,0.021,0.357-0.016
	c0.113-0.035,0.152,0.02,0.178,0.112c0.034,0.126,0.084,0.247,0.109,0.375c0.029,0.155,0.122,0.2,0.267,0.198
	c0.198-0.003,0.396-0.002,0.595,0.003c0.845,0.021,1.691,0.046,2.536,0.063c0.122,0.003,0.165,0.04,0.163,0.167
	c-0.01,0.401-0.001,0.804-0.011,1.206c-0.003,0.136,0.046,0.174,0.177,0.171c0.307-0.007,0.611,0.001,0.918-0.004
	c0.125-0.001,0.166,0.044,0.167,0.166C36.129,34.509,36.133,34.509,35.661,34.509z"/>
</svg>
