<svg xmlns="http://www.w3.org/2000/svg" xmlns:xlink="http://www.w3.org/1999/xlink" x="0" y="0" width="586.6000162760416" height="295.59999593098956" style="
        width:586.6000162760416px;
        height:295.59999593098956px;
        background: transparent;
        fill: none;
">
        
        
        <svg xmlns="http://www.w3.org/2000/svg" class="role-diagram-draw-area" style="overflow: visible;"><g class="shapes-region" style="stroke: black; fill: none;"><g class="grouped-shape"><g class="composite-shape"><path class="real" d=" M11.95,199.03 C11.95,152.85 128.54,115.4 272.37,115.4 C416.2,115.4 532.8,152.85 532.8,199.03 C532.8,245.22 416.2,282.66 272.37,282.66 C128.54,282.66 11.95,245.22 11.95,199.03 Z" style="stroke-width: 1; stroke: none; stroke-opacity: 1; fill: rgb(65, 117, 5); fill-opacity: 1;"/></g><g class="grouped-shape"><g class="composite-shape"><path class="real" d=" M290.29,191.76 C271.06,191 254.32,185.82 249.7,178.47 C243.87,169.2 259.44,159.98 284.48,157.88 C309.52,155.77 334.55,161.57 340.38,170.84 C345.01,178.19 336.14,185.52 319.76,189.28 Z" style="stroke-width: 1; stroke: rgb(128, 128, 128); stroke-opacity: 1; fill: rgb(0, 0, 0); fill-opacity: 1;"/></g><g class="composite-shape"><path class="real" d=" M248.98,121.54 L341.22,121.54 L341.22,174.65 L248.98,174.65 Z" style="stroke-width: 1; stroke: none; stroke-opacity: 1; fill: rgb(0, 0, 0); fill-opacity: 1;"/></g><g class="composite-shape"><path class="real" d=" M290.29,136.57 C271.06,135.81 254.32,130.64 249.7,123.28 C243.87,114.01 259.44,104.79 284.48,102.69 C309.52,100.58 334.55,106.38 340.38,115.65 C345.01,123 336.14,130.33 319.76,134.09 Z" style="stroke-width: 1; stroke: rgb(128, 128, 128); stroke-opacity: 1; fill: rgb(0, 0, 0); fill-opacity: 1;"/></g><g class="composite-shape"><path class="real" d=" M293.49,115.54 C299.66,115.15 305.85,116.7 307.3,119.01 C308.74,121.31 304.91,123.49 298.73,123.88 C292.55,124.27 286.37,122.72 284.92,120.42 C283.47,118.12 287.31,115.93 293.49,115.54 Z" style="stroke-width: 1; stroke: none; stroke-opacity: 1; fill: rgb(255, 255, 0); fill-opacity: 1;"/></g><g class="composite-shape"><path class="real" d=" M321.86,121.82 C328.04,121.43 334.22,122.98 335.67,125.28 C337.12,127.58 333.28,129.76 327.1,130.15 C320.92,130.54 314.74,128.99 313.29,126.69 C311.85,124.39 315.68,122.21 321.86,121.82 Z" style="stroke-width: 1; stroke: none; stroke-opacity: 1; fill: rgb(0, 255, 0); fill-opacity: 1;"/></g><g class="composite-shape"><path class="real" d=" M275.87,126.13 C282.02,125.69 288.18,127.2 289.63,129.5 C291.07,131.8 287.26,134.03 281.12,134.46 C274.97,134.9 268.81,133.4 267.36,131.1 C265.92,128.79 269.73,126.57 275.87,126.13 Z" style="stroke-width: 1; stroke: none; stroke-opacity: 1; fill: rgb(189, 16, 224); fill-opacity: 1;"/></g><g class="composite-shape"><path class="real" d=" M304.72,103.52 C310.9,103.13 317.09,104.68 318.53,106.98 C319.98,109.28 316.15,111.46 309.97,111.85 C303.79,112.24 297.61,110.69 296.16,108.39 C294.71,106.09 298.55,103.91 304.72,103.52 Z" style="stroke-width: 1; stroke: none; stroke-opacity: 1; fill: rgb(189, 16, 224); fill-opacity: 1;"/></g><g class="composite-shape"><path class="real" d=" M269.5,107.07 C275.57,106.52 281.67,107.93 283.12,110.23 C284.56,112.53 280.81,114.85 274.74,115.4 C268.67,115.96 262.57,114.55 261.12,112.25 C259.68,109.95 263.43,107.63 269.5,107.07 Z" style="stroke-width: 1; stroke: none; stroke-opacity: 1; fill: rgb(0, 255, 0); fill-opacity: 1;"/></g><g class="arrow-line"><path class="connection real" stroke-dasharray="" d="  M319.76,133.83 L319.76,189.02" style="stroke: rgb(128, 128, 128); stroke-opacity: 1; stroke-width: 1; fill: none; fill-opacity: 1;"/></g><g class="arrow-line"><path class="connection real" stroke-dasharray="" d="  M290.29,136.31 L290.29,191.5" style="stroke: rgb(128, 128, 128); stroke-opacity: 1; stroke-width: 1; fill: none; fill-opacity: 1;"/></g><g class="arrow-line"><path class="connection real" stroke-dasharray="" d="  M341.57,119.48 L341.57,174.94" style="stroke: rgb(128, 128, 128); stroke-opacity: 1; stroke-width: 1; fill: none; fill-opacity: 1;"/></g><g class="arrow-line"><path class="connection real" stroke-dasharray="" d="  M248.63,120.93 L248.63,176" style="stroke: rgb(128, 128, 128); stroke-opacity: 1; stroke-width: 1; fill: none; fill-opacity: 1;"/></g></g><g class="composite-shape"><path class="real" d=" M392.29,65.41 C392.29,61.11 395.78,57.62 400.08,57.62 C404.39,57.62 407.88,61.11 407.88,65.41 C407.88,69.72 404.39,73.21 400.08,73.21 C395.78,73.21 392.29,69.72 392.29,65.41 Z" style="stroke-width: 2; stroke: rgb(210, 140, 26); stroke-opacity: 1; fill: rgb(245, 166, 35); fill-opacity: 1;"/></g><g class="composite-shape"><path class="real" d=" M114.92,43.62 C206.38,-9.37 315.67,-1.84 388.98,56.14 L227.14,240.36 Z" style="stroke-width: 1; stroke: none; stroke-opacity: 1; fill: none; fill-opacity: 1; stroke-dasharray: 1.125, 3.35;"/><path class="real" d=" M114.92,43.62 C206.38,-9.37 315.67,-1.84 388.98,56.14" style="stroke-width: 1; stroke: rgb(155, 155, 155); stroke-opacity: 1; fill: none; fill-opacity: 1; stroke-dasharray: 1.125, 3.35;"/></g><g class="composite-shape"><path class="real" d=" M384.75,206.52 C384.75,205.05 392.13,203.85 401.23,203.85 C410.34,203.85 417.71,205.05 417.71,206.52 C417.71,207.99 410.34,209.18 401.23,209.18 C392.13,209.18 384.75,207.99 384.75,206.52 Z" style="stroke-width: 1; stroke: rgb(0, 0, 0); fill: rgb(0, 0, 0); fill-opacity: 1;"/></g></g><g/></g><g/><g/><g/></svg>
        <svg xmlns="http://www.w3.org/2000/svg" xmlns:xlink="http://www.w3.org/1999/xlink" width="585" height="294" style="width:585px;height:294px;font-family:Asana-Math, Asana;background:transparent;"><g><g><g><g transform="matrix(1,0,0,1,342.875,92.38749593098959)"><path transform="matrix(0.0136,0,0,-0.0136,0,0)" d="M146 266C146 526 243 632 301 700L282 726C225 675 60 542 60 266C60 159 85 58 133 -32C168 -99 200 -138 282 -215L301 -194C255 -137 146 -15 146 266Z" stroke="rgb(0,0,0)" stroke-opacity="1" stroke-width="8" fill="rgb(0,0,0)" fill-opacity="1"></path></g></g><g><g transform="matrix(1,0,0,1,347.39998372395837,92.38749593098959)"><path transform="matrix(0.0136,0,0,-0.0136,0,0)" d="M9 1C24 -7 40 -11 52 -11C85 -11 124 18 155 65L231 182L242 113C255 28 278 -11 314 -11C336 -11 368 6 400 35L449 79L440 98C404 68 379 53 363 53C348 53 335 63 325 83C316 102 305 139 300 168L282 269L317 318C364 383 391 406 422 406C438 406 450 398 455 383L469 387L484 472C472 479 463 482 454 482C414 482 374 446 312 354L275 299L269 347C257 446 230 482 171 482C145 482 123 474 114 461L56 378L73 368C103 402 123 416 142 416C175 416 197 375 214 277L225 215L185 153C142 86 108 54 80 54C65 54 54 58 52 63L41 91L21 88C21 53 13 27 9 1Z" stroke="rgb(0,0,0)" stroke-opacity="1" stroke-width="8" fill="rgb(0,0,0)" fill-opacity="1"></path></g></g><g><g transform="matrix(1,0,0,1,354.1875,92.38749593098959)"><path transform="matrix(0.0136,0,0,-0.0136,0,0)" d="M204 123C177 114 159 108 106 93C99 17 74 -48 16 -144L30 -155L71 -136C152 -31 190 32 218 109Z" stroke="rgb(0,0,0)" stroke-opacity="1" stroke-width="8" fill="rgb(0,0,0)" fill-opacity="1"></path></g></g><g><g transform="matrix(1,0,0,1,360.2875162760417,92.38749593098959)"><path transform="matrix(0.0136,0,0,-0.0136,0,0)" d="M242 -180C241 -187 241 -193 241 -198C241 -241 278 -276 323 -276C429 -276 539 -152 598 33L739 473L728 482C699 471 676 465 654 463L619 331C607 284 572 211 539 162C504 111 455 67 433 67C421 67 412 90 413 115L429 322C431 353 433 391 433 419C433 464 426 482 409 482C396 482 382 475 334 442L252 386L263 368L313 398C318 401 329 410 338 410C352 410 360 391 360 358C360 357 360 351 359 343L342 100L341 60C341 18 359 -11 384 -11C421 -11 505 74 580 187L531 16C480 -161 430 -234 360 -234C325 -234 298 -207 298 -172C298 -167 299 -159 300 -150L290 -146Z" stroke="rgb(0,0,0)" stroke-opacity="1" stroke-width="8" fill="rgb(0,0,0)" fill-opacity="1"></path></g></g><g><g transform="matrix(1,0,0,1,370.46248372395837,92.38749593098959)"><path transform="matrix(0.0136,0,0,-0.0136,0,0)" d="M204 123C177 114 159 108 106 93C99 17 74 -48 16 -144L30 -155L71 -136C152 -31 190 32 218 109Z" stroke="rgb(0,0,0)" stroke-opacity="1" stroke-width="8" fill="rgb(0,0,0)" fill-opacity="1"></path></g></g><g><g transform="matrix(1,0,0,1,376.5625,92.38749593098959)"><path transform="matrix(0.0136,0,0,-0.0136,0,0)" d="M571 -11C583 -11 592 -9 621 -1C632 61 640 95 651 142L629 142L607 82C601 64 589 57 568 57C556 57 540 59 519 64L501 68C468 75 434 80 415 80C383 80 356 74 320 59L659 441L665 473L656 482L633 459C623 449 613 445 599 445C565 445 513 453 465 466L447 471C419 478 399 482 385 482C368 482 348 479 324 472L292 350L313 350L343 408C360 412 369 413 382 413C423 413 455 398 508 398C544 398 568 404 601 421L248 21L257 -6C286 17 313 26 348 26C411 26 502 -11 571 -11Z" stroke="rgb(0,0,0)" stroke-opacity="1" stroke-width="8" fill="rgb(0,0,0)" fill-opacity="1"></path></g></g><g><g transform="matrix(1,0,0,1,385.9750162760417,92.38749593098959)"><path transform="matrix(0.0136,0,0,-0.0136,0,0)" d="M51 726L32 700C87 636 187 526 187 266C187 -10 83 -131 32 -194L51 -215C104 -165 273 -23 273 265C273 542 108 675 51 726Z" stroke="rgb(0,0,0)" stroke-opacity="1" stroke-width="8" fill="rgb(0,0,0)" fill-opacity="1"></path></g></g><g><g transform="matrix(1,0,0,1,393.21248372395837,92.38749593098959)"><path transform="matrix(0.0136,0,0,-0.0136,0,0)" d="M123 111C93 111 66 83 66 53C66 23 93 -5 122 -5C154 -5 182 22 182 53C182 83 154 111 123 111ZM123 456C93 456 66 428 66 398C66 368 93 340 122 340C154 340 182 367 182 397C182 428 154 456 123 456Z" stroke="rgb(0,0,0)" stroke-opacity="1" stroke-width="8" fill="rgb(0,0,0)" fill-opacity="1"></path></g></g><g><g transform="matrix(1,0,0,1,399.3125,92.38749593098959)"><path transform="matrix(0.0136,0,0,-0.0136,0,0)" d="M354 664L409 662C433 661 444 653 444 635L361 125C344 34 343 31 303 28L262 25L258 -3L300 -2C341 -1 372 0 390 0C407 0 436 -1 476 -2L529 -3L532 25L467 28C441 29 431 37 431 58C431 67 432 74 435 93L533 648C569 654 585 656 604 656C706 656 755 612 755 519C755 411 683 323 595 323C573 323 553 328 516 342L518 311C555 293 575 288 604 288C733 288 843 405 843 541C843 642 780 695 661 692L357 692ZM876 152C876 46 921 -11 1004 -11C1059 -11 1119 15 1164 57C1226 116 1270 230 1270 331C1270 425 1220 482 1137 482C1033 482 876 382 876 152ZM1100 444C1161 444 1194 399 1194 315C1194 219 1163 113 1119 60C1101 39 1075 27 1044 27C986 27 952 72 952 151C952 264 991 387 1040 427C1053 438 1076 444 1100 444ZM1336 388L1343 368L1375 389C1412 412 1415 414 1422 414C1432 414 1440 404 1440 391C1440 384 1436 361 1432 347L1366 107C1358 76 1353 49 1353 30C1353 6 1364 -9 1383 -9C1409 -9 1445 12 1543 85L1533 103L1507 86C1478 67 1455 56 1446 56C1439 56 1433 66 1433 76C1433 86 1435 95 1440 116L1517 420C1521 437 1523 448 1523 456C1523 473 1514 482 1498 482C1476 482 1439 461 1364 408ZM1530 712C1501 712 1472 679 1472 645C1472 620 1487 604 1511 604C1542 604 1566 633 1566 671C1566 695 1551 712 1530 712ZM1603 388L1610 368L1642 389C1679 412 1682 414 1689 414C1700 414 1707 404 1707 389C1707 338 1666 145 1625 2L1632 -9C1657 -2 1680 4 1702 8C1721 134 1742 199 1788 268C1842 352 1917 414 1962 414C1973 414 1979 405 1979 390C1979 372 1976 351 1968 319L1916 107C1907 70 1903 47 1903 31C1903 6 1914 -9 1933 -9C1959 -9 1995 12 2093 85L2083 103L2057 86C2028 67 2006 56 1996 56C1989 56 1983 65 1983 76C1983 81 1984 92 1985 96L2051 372C2058 401 2062 429 2062 446C2062 469 2051 482 2031 482C1989 482 1920 444 1861 389C1823 354 1795 320 1743 247L1781 408C1785 426 1787 438 1787 449C1787 470 1779 482 1764 482C1743 482 1704 460 1631 408ZM2259 390L2203 107C2202 99 2190 61 2190 31C2190 6 2201 -9 2220 -9C2255 -9 2290 11 2368 74L2399 99L2389 117L2344 86C2315 66 2295 56 2284 56C2275 56 2270 64 2270 76C2270 102 2284 183 2313 328L2326 390L2433 390L2444 440C2406 436 2372 434 2334 434C2350 528 2361 577 2379 631L2368 646C2348 634 2321 622 2290 610L2265 440C2221 419 2195 408 2177 403L2175 390ZM2928 224C2928 345 2821 366 2774 374C2854 436 2884 482 2884 541C2884 630 2810 689 2699 689C2631 689 2586 670 2538 622L2509 498L2540 498L2558 554C2569 588 2632 622 2684 622C2749 622 2802 569 2802 506C2802 431 2743 368 2672 368C2664 368 2653 369 2640 370L2625 371L2613 318L2620 312C2658 329 2677 334 2704 334C2787 334 2835 281 2835 190C2835 88 2774 21 2681 21C2635 21 2594 36 2564 64C2540 86 2527 109 2508 163L2481 153C2502 92 2510 56 2516 6C2569 -12 2613 -20 2650 -20C2773 -20 2928 87 2928 224ZM3281 -3C3353 -3 3402 8 3454 34C3610 114 3706 265 3706 431C3706 529 3676 599 3615 642C3569 675 3484 693 3389 692L3185 689L3175 689C3166 689 3163 689 3062 692L3059 664L3112 662C3136 661 3147 653 3147 635C3147 621 3143 589 3138 559L3051 55C3046 31 3021 29 2998 23L2993 -3L3086 0L3141 0C3176 0 3247 -3 3281 -3ZM3349 655C3531 655 3614 579 3614 415C3614 225 3514 41 3294 41C3250 41 3201 46 3133 56C3133 68 3134 75 3137 93L3233 650C3256 650 3314 655 3349 655ZM4087 437L4071 437L4092 549C4108 635 4136 673 4182 673C4212 673 4239 658 4254 634L4264 638C4269 654 4279 685 4287 705L4292 720C4276 727 4245 733 4222 733C4211 733 4195 730 4187 726C4163 715 4081 654 4058 630C4036 608 4024 578 4013 521L3998 442C3957 422 3937 414 3912 405L3907 383L3988 383L3979 327C3949 132 3912 -54 3890 -123C3872 -182 3842 -213 3806 -213C3783 -213 3772 -206 3754 -184L3740 -188C3736 -211 3722 -259 3717 -268C3726 -273 3741 -276 3752 -276C3793 -276 3847 -245 3886 -198C3957 -114 3977 -18 4061 383L4165 383C4169 402 4176 425 4182 439L4178 446C4149 439 4150 437 4087 437Z" stroke="rgb(0,0,0)" stroke-opacity="1" stroke-width="8" fill="rgb(0,0,0)" fill-opacity="1"></path></g></g></g></g><g><g><g><g transform="matrix(1,0,0,1,245.33748372395834,210.2500040690104)"><path transform="matrix(0.0136,0,0,-0.0136,0,0)" d="M146 266C146 526 243 632 301 700L282 726C225 675 60 542 60 266C60 159 85 58 133 -32C168 -99 200 -138 282 -215L301 -194C255 -137 146 -15 146 266Z" stroke="rgb(0,0,0)" stroke-opacity="1" stroke-width="8" fill="rgb(0,0,0)" fill-opacity="1"></path></g></g><g><g transform="matrix(1,0,0,1,249.86246744791666,210.2500040690104)"><path transform="matrix(0.0136,0,0,-0.0136,0,0)" d="M9 1C24 -7 40 -11 52 -11C85 -11 124 18 155 65L231 182L242 113C255 28 278 -11 314 -11C336 -11 368 6 400 35L449 79L440 98C404 68 379 53 363 53C348 53 335 63 325 83C316 102 305 139 300 168L282 269L317 318C364 383 391 406 422 406C438 406 450 398 455 383L469 387L484 472C472 479 463 482 454 482C414 482 374 446 312 354L275 299L269 347C257 446 230 482 171 482C145 482 123 474 114 461L56 378L73 368C103 402 123 416 142 416C175 416 197 375 214 277L225 215L185 153C142 86 108 54 80 54C65 54 54 58 52 63L41 91L21 88C21 53 13 27 9 1Z" stroke="rgb(0,0,0)" stroke-opacity="1" stroke-width="8" fill="rgb(0,0,0)" fill-opacity="1"></path></g></g><g><g transform="matrix(1,0,0,1,256.64998372395837,210.2500040690104)"><path transform="matrix(0.0136,0,0,-0.0136,0,0)" d="M204 123C177 114 159 108 106 93C99 17 74 -48 16 -144L30 -155L71 -136C152 -31 190 32 218 109Z" stroke="rgb(0,0,0)" stroke-opacity="1" stroke-width="8" fill="rgb(0,0,0)" fill-opacity="1"></path></g></g><g><g transform="matrix(1,0,0,1,262.75,210.2500040690104)"><path transform="matrix(0.0136,0,0,-0.0136,0,0)" d="M242 -180C241 -187 241 -193 241 -198C241 -241 278 -276 323 -276C429 -276 539 -152 598 33L739 473L728 482C699 471 676 465 654 463L619 331C607 284 572 211 539 162C504 111 455 67 433 67C421 67 412 90 413 115L429 322C431 353 433 391 433 419C433 464 426 482 409 482C396 482 382 475 334 442L252 386L263 368L313 398C318 401 329 410 338 410C352 410 360 391 360 358C360 357 360 351 359 343L342 100L341 60C341 18 359 -11 384 -11C421 -11 505 74 580 187L531 16C480 -161 430 -234 360 -234C325 -234 298 -207 298 -172C298 -167 299 -159 300 -150L290 -146Z" stroke="rgb(0,0,0)" stroke-opacity="1" stroke-width="8" fill="rgb(0,0,0)" fill-opacity="1"></path></g></g><g><g transform="matrix(1,0,0,1,272.9249674479167,210.2500040690104)"><path transform="matrix(0.0136,0,0,-0.0136,0,0)" d="M51 726L32 700C87 636 187 526 187 266C187 -10 83 -131 32 -194L51 -215C104 -165 273 -23 273 265C273 542 108 675 51 726Z" stroke="rgb(0,0,0)" stroke-opacity="1" stroke-width="8" fill="rgb(0,0,0)" fill-opacity="1"></path></g></g><g><g transform="matrix(1,0,0,1,280.1625162760417,210.2500040690104)"><path transform="matrix(0.0136,0,0,-0.0136,0,0)" d="M123 111C93 111 66 83 66 53C66 23 93 -5 122 -5C154 -5 182 22 182 53C182 83 154 111 123 111ZM123 456C93 456 66 428 66 398C66 368 93 340 122 340C154 340 182 367 182 397C182 428 154 456 123 456Z" stroke="rgb(0,0,0)" stroke-opacity="1" stroke-width="8" fill="rgb(0,0,0)" fill-opacity="1"></path></g></g><g><g transform="matrix(1,0,0,1,286.26253255208337,210.2500040690104)"><path transform="matrix(0.0136,0,0,-0.0136,0,0)" d="M354 664L409 662C433 661 444 653 444 635L361 125C344 34 343 31 303 28L262 25L258 -3L300 -2C341 -1 372 0 390 0C407 0 436 -1 476 -2L529 -3L532 25L467 28C441 29 431 37 431 58C431 67 432 74 435 93L533 648C569 654 585 656 604 656C706 656 755 612 755 519C755 411 683 323 595 323C573 323 553 328 516 342L518 311C555 293 575 288 604 288C733 288 843 405 843 541C843 642 780 695 661 692L357 692ZM876 152C876 46 921 -11 1004 -11C1059 -11 1119 15 1164 57C1226 116 1270 230 1270 331C1270 425 1220 482 1137 482C1033 482 876 382 876 152ZM1100 444C1161 444 1194 399 1194 315C1194 219 1163 113 1119 60C1101 39 1075 27 1044 27C986 27 952 72 952 151C952 264 991 387 1040 427C1053 438 1076 444 1100 444ZM1336 388L1343 368L1375 389C1412 412 1415 414 1422 414C1432 414 1440 404 1440 391C1440 384 1436 361 1432 347L1366 107C1358 76 1353 49 1353 30C1353 6 1364 -9 1383 -9C1409 -9 1445 12 1543 85L1533 103L1507 86C1478 67 1455 56 1446 56C1439 56 1433 66 1433 76C1433 86 1435 95 1440 116L1517 420C1521 437 1523 448 1523 456C1523 473 1514 482 1498 482C1476 482 1439 461 1364 408ZM1530 712C1501 712 1472 679 1472 645C1472 620 1487 604 1511 604C1542 604 1566 633 1566 671C1566 695 1551 712 1530 712ZM1603 388L1610 368L1642 389C1679 412 1682 414 1689 414C1700 414 1707 404 1707 389C1707 338 1666 145 1625 2L1632 -9C1657 -2 1680 4 1702 8C1721 134 1742 199 1788 268C1842 352 1917 414 1962 414C1973 414 1979 405 1979 390C1979 372 1976 351 1968 319L1916 107C1907 70 1903 47 1903 31C1903 6 1914 -9 1933 -9C1959 -9 1995 12 2093 85L2083 103L2057 86C2028 67 2006 56 1996 56C1989 56 1983 65 1983 76C1983 81 1984 92 1985 96L2051 372C2058 401 2062 429 2062 446C2062 469 2051 482 2031 482C1989 482 1920 444 1861 389C1823 354 1795 320 1743 247L1781 408C1785 426 1787 438 1787 449C1787 470 1779 482 1764 482C1743 482 1704 460 1631 408ZM2259 390L2203 107C2202 99 2190 61 2190 31C2190 6 2201 -9 2220 -9C2255 -9 2290 11 2368 74L2399 99L2389 117L2344 86C2315 66 2295 56 2284 56C2275 56 2270 64 2270 76C2270 102 2284 183 2313 328L2326 390L2433 390L2444 440C2406 436 2372 434 2334 434C2350 528 2361 577 2379 631L2368 646C2348 634 2321 622 2290 610L2265 440C2221 419 2195 408 2177 403L2175 390ZM2482 23L2482 -3C2669 -3 2669 0 2705 0C2741 0 2741 -3 2934 -3L2934 82C2819 77 2773 81 2588 77L2770 270C2867 373 2897 428 2897 503C2897 618 2819 689 2692 689C2620 689 2571 669 2522 619L2505 483L2534 483L2547 529C2563 587 2599 612 2666 612C2752 612 2807 558 2807 473C2807 398 2765 324 2652 204ZM3281 -3C3353 -3 3402 8 3454 34C3610 114 3706 265 3706 431C3706 529 3676 599 3615 642C3569 675 3484 693 3389 692L3185 689L3175 689C3166 689 3163 689 3062 692L3059 664L3112 662C3136 661 3147 653 3147 635C3147 621 3143 589 3138 559L3051 55C3046 31 3021 29 2998 23L2993 -3L3086 0L3141 0C3176 0 3247 -3 3281 -3ZM3349 655C3531 655 3614 579 3614 415C3614 225 3514 41 3294 41C3250 41 3201 46 3133 56C3133 68 3134 75 3137 93L3233 650C3256 650 3314 655 3349 655ZM4087 437L4071 437L4092 549C4108 635 4136 673 4182 673C4212 673 4239 658 4254 634L4264 638C4269 654 4279 685 4287 705L4292 720C4276 727 4245 733 4222 733C4211 733 4195 730 4187 726C4163 715 4081 654 4058 630C4036 608 4024 578 4013 521L3998 442C3957 422 3937 414 3912 405L3907 383L3988 383L3979 327C3949 132 3912 -54 3890 -123C3872 -182 3842 -213 3806 -213C3783 -213 3772 -206 3754 -184L3740 -188C3736 -211 3722 -259 3717 -268C3726 -273 3741 -276 3752 -276C3793 -276 3847 -245 3886 -198C3957 -114 3977 -18 4061 383L4165 383C4169 402 4176 425 4182 439L4178 446C4149 439 4150 437 4087 437Z" stroke="rgb(0,0,0)" stroke-opacity="1" stroke-width="8" fill="rgb(0,0,0)" fill-opacity="1"></path></g></g></g></g></svg>
</svg>
