<svg xmlns="http://www.w3.org/2000/svg" width="58" height="58" viewBox="0 0 58 58" fill="none"><path fill="#F9F9F9" d="m14.367 29.206-.158.231c-2.585 3.758-6.263 7.447-6.067 8.758.007.048.048.268.162.537.643 1.531 2.475 1.898 2.885 1.98.379.076.615.039.811-.06.146-.073.276-.188.387-.353.02-.029.096-.119.168-.242.303-.52 1.592-3.338 1.65-5.067.003-.106.002-.204.002-.204a11.608 11.608 0 0 1-.214-1.425c-.083-.909-.05-1.813.086-2.715.075-.486.182-.962.288-1.44z"/><path fill="#F9F9F9" d="M10.9 41.037c-1.217-.291-2.267-.824-2.892-1.963-.041-.074-.079-.074-.135-.019a.657.657 0 0 0-.192.322c-.002.014-.024.125-.001.25.165.907.82 1.447.82 1.447s.659.543 2.094.5a.41.41 0 0 0 .219-.062c.099-.065.141-.161.183-.308.033-.117.017-.141-.096-.167zM26.698 42.459c-1.157-.717-2.403-.941-3.738-.635-.661.152-1.28.402-1.776.878-.355.34-.336.624.044.939.22.183.463.335.704.489.763.49 1.577.822 2.471.803.217.01.396-.006.573-.033.872-.137 1.625-.519 2.278-1.091.27-.237.275-.481.071-.774a2.117 2.117 0 0 0-.627-.576zM36.381 42.385c-1.256-.696-2.571-.825-3.938-.382-.629.204-1.2.514-1.658.995-.375.393-.334.708.117 1.008.29.193.604.342.916.492.615.299 1.256.495 1.957.479.338.014.676-.031 1.009-.119.836-.219 1.527-.673 2.11-1.291.207-.221.219-.435.056-.678a1.589 1.589 0 0 0-.569-.504zM15.542 18.308l.101.101c.185.197.187.201.402.042.566-.419 1.074-.907 1.584-1.389.438-.412.866-.834 1.252-1.296.053-.063.113-.123.132-.197 0-.057-.032-.084-.062-.114-.075-.076-.152-.151-.229-.226-.205-.203-.21-.209-.434-.031a23.405 23.405 0 0 0-2.774 2.623c-.217.243-.209.252.028.487zM15.458 25.114c.479.87 1.222 1.46 2.102 1.898 1.175.585 2.443.866 3.731 1.064 1.697.261 3.411.344 5.125.385.918.022 1.836.003 2.754.003 1.794.019 3.587.005 5.378-.127a28.813 28.813 0 0 0 3.085-.369c1.116-.205 2.208-.492 3.226-1.012 1.74-.89 2.63-2.289 2.604-4.231-.019-1.347-.439-2.575-1.151-3.714a.488.488 0 0 0-.118-.131 15.302 15.302 0 0 1-.979-.836c-.635-.586-1.264-1.177-1.824-1.835-.046-.054-.119-.111-.102-.179.023-.096-.03-.123-.09-.163-.345-.236-.698-.46-1.063-.664-2.434-1.354-5.067-2.017-7.841-2.155-2.184-.109-4.334.112-6.437.729-1.538.452-2.988 1.09-4.329 1.964-.043.028-.103.045-.117.104-.033.14-.134.235-.223.338-.662.759-1.39 1.453-2.143 2.124-.231.206-.46.416-.727.578a.531.531 0 0 0-.178.168c-.809 1.273-1.266 2.645-1.194 4.161.029.667.184 1.308.511 1.9zm20.769-3.66c.017-.75.044-1.5.285-2.222.031-.095.068-.189.111-.279.336-.707.919-.896 1.611-.512.756.418 1.232 1.074 1.541 1.854.538 1.358.137 3.123-.931 4.086-.338.305-.726.506-1.21.405-.311-.064-.535-.257-.715-.502-.375-.506-.525-1.094-.618-1.699a6.393 6.393 0 0 1-.074-1.131zm-16.134-2.712c.249-.162.53-.256.834-.225.44.045.682.34.853.705.187.401.274.831.321 1.265.081.759.115 1.52.005 2.28-.083.583-.217 1.152-.542 1.655-.265.412-.615.699-1.151.644-.362-.038-.656-.222-.91-.464-.615-.585-.928-1.321-1.071-2.138a4.492 4.492 0 0 1-.054-.64c.07-1.297.588-2.355 1.715-3.082zM42.429 18.426c.329.27.335.264.636-.034.248-.245.248-.245.012-.514-.58-.664-1.226-1.266-1.877-1.86-.29-.266-.585-.525-.904-.757-.063-.045-.129-.083-.184-.119-.064-.003-.088.035-.118.063-.094.09-.177.195-.282.273-.15.113-.125.207-.016.332a22.99 22.99 0 0 0 2.733 2.616zM43.633 29.206c.106.478.213.954.286 1.439.136.901.169 1.806.086 2.716-.044.479-.112.954-.214 1.424 0 0-.002.098.002.204.059 1.729 1.348 4.549 1.65 5.067.072.123.148.213.168.242.111.165.242.279.388.353.195.098.431.136.812.06.411-.082 2.243-.449 2.885-1.98.114-.271.154-.49.162-.537.195-1.309-3.482-5-6.068-8.758-.07-.101-.126-.182-.157-.23z"/><path fill="#F9F9F9" d="M47.1 41.037c-.113.027-.129.05-.096.168.041.147.084.243.183.309a.403.403 0 0 0 .219.063c1.435.041 2.094-.502 2.094-.502s.654-.539.821-1.446a.722.722 0 0 0-.002-.25.67.67 0 0 0-.191-.323c-.057-.055-.094-.053-.135.021-.627 1.136-1.677 1.669-2.893 1.96zM42.829 27.848c-.107-.363-.2-.729-.364-1.074-.063-.132-.133-.155-.242-.046a4.098 4.098 0 0 1-.313.292c-.809.664-1.751 1.062-2.75 1.347-1.582.451-3.206.625-4.84.74a61.13 61.13 0 0 1-3.398.133c-1.632.022-3.264.002-4.896-.048-1.319-.04-2.636-.105-3.946-.262-1.018-.122-2.027-.293-3.009-.592-1.196-.364-2.308-.87-3.141-1.839-.106-.124-.178-.104-.248.053a7.28 7.28 0 0 0-.322.902c-.272.931-.553 1.859-.671 2.824-.143 1.165-.132 2.337-.041 3.503.105 1.343.476 2.623 1.001 3.862a14.07 14.07 0 0 0 2.697 4.12c.451.483.894.982 1.605 1.098.064.012.127.035.191.052.281.079.279.077.4-.174a1.21 1.21 0 0 1 .155-.237c.19-.234.429-.414.688-.565 1.308-.757 2.698-.889 4.145-.487.754.209 1.449.537 1.996 1.11.24.251.417.54.382.905-.013.131.035.157.158.157a58.535 58.535 0 0 1 1.728.01c.189.005.305-.011.285-.243-.01-.113.057-.228.111-.334.152-.299.385-.529.651-.724 1.187-.862 2.515-1.192 3.974-.969.724.111 1.408.343 2.01.767.29.206.553.445.652.801.033.117.08.139.189.105.258-.08.516-.158.776-.226.228-.059.411-.18.579-.339a14.272 14.272 0 0 0 1.854-2.094c1.741-2.439 2.653-5.141 2.63-8.134-.003-.526-.006-1.053-.063-1.577-.104-.959-.339-1.892-.613-2.817zm-6.934 7.788c-.329-.009-.659-.007-.988-.021-.145-.006-.227.023-.232.188-.018.543-.144 1.075-.209 1.613-.021.178-.211.328-.429.345-.538.04-1.075.077-1.614.108-1.029.061-2.059.135-3.089.164-.61.018-1.224-.033-1.834-.062-.527-.023-1.053-.059-1.579-.092-.55-.035-1.101-.071-1.65-.111-.209-.015-.307-.106-.365-.33-.126-.486-.212-.98-.286-1.478-.038-.253-.04-.267-.272-.217-.172.038-.241-.021-.258-.2-.035-.375-.046-.375.344-.408.394-.033.789-.064 1.182-.101.116-.011.156.023.167.142.036.426.041.425-.375.477-.219.026-.221.026-.182.252.064.371.133.743.198 1.115.019.109.057.178.192.185 1.275.066 2.55.149 3.826.206 1.007.045 2.014-.023 3.02-.092.681-.046 1.364-.08 2.046-.121.072-.004.145-.016.216-.015.116.001.17-.053.187-.166.061-.409.128-.816.162-1.229.012-.141-.035-.186-.18-.183-.342.01-.684 0-1.025.006-.127.002-.168-.043-.164-.165.012-.53-.063-.433.428-.438.414-.004.827 0 1.241 0v.024c.492 0 .984.003 1.477-.002.143-.001.216.03.185.192-.016.085-.002.176.006.264.006.105-.035.153-.146.15zm-.234-1.127c-.882 0-1.765-.003-2.647.003-.155.001-.223-.027-.217-.203.014-.401.005-.401.413-.401.282 0 .563-.005.846.002.128.003.167-.042.163-.165a6.41 6.41 0 0 1 0-.62c.006-.138-.037-.184-.182-.186-.701-.007-1.404-.022-2.105-.036-.223-.005-.443-.021-.666-.021-.115 0-.166-.035-.156-.154.005-.045.033-.119-.043-.133-.074-.012-.105.057-.119.112a9.193 9.193 0 0 0-.119.59c-.018.103-.047.146-.163.116a.505.505 0 0 0-.267-.005c-.193.071-.222-.044-.25-.183-.033-.172-.057-.348-.136-.55-.076.237-.145.438-.206.642-.031.107-.076.165-.201.109a.41.41 0 0 0-.3-.009c-.116.038-.152-.013-.174-.109a56.84 56.84 0 0 0-.145-.623c-.109.23-.158.435-.216.634-.031.105-.077.148-.193.104a.42.42 0 0 0-.3 0c-.121.049-.161-.008-.189-.109-.053-.191-.113-.381-.169-.57l-.042.008c-.044.184-.089.366-.132.55-.021.093-.056.146-.172.114a.499.499 0 0 0-.319.012c-.11.043-.15-.009-.176-.104-.048-.171-.102-.34-.157-.509-.024-.073-.058-.16-.153-.145-.098.016-.049.107-.049.162.002.153-.119.131-.203.139-.37.031-.741.053-1.111.08-.424.03-.848.068-1.273.094-.13.008-.161.064-.152.18.017.218.032.436.035.654.002.119.049.154.163.145.448-.033.898-.051 1.346-.096.478-.048.473-.058.532.4.016.123-.019.174-.146.183-.515.032-1.029.069-1.542.104-.819.057-1.639.112-2.458.172-.106.008-.149-.024-.159-.133-.038-.467-.042-.473.43-.518a20.1 20.1 0 0 1 1.04-.072c.126-.006.166-.051.159-.172-.018-.288-.03-.578-.038-.866a1.32 1.32 0 0 1 .024-.265c.033-.19.146-.295.336-.311.819-.061 1.639-.12 2.457-.178.266-.019.271-.018.315-.281.02-.117.047-.232.063-.349.016-.118.072-.173.194-.136a.45.45 0 0 0 .301-.016c.136-.053.185.004.215.123.029.11.068.22.14.33.042-.168.088-.335.12-.504.021-.106.075-.143.176-.121.119.026.24.029.356-.008.116-.035.151.024.178.112l.217.731c.085-.268.162-.486.223-.709.033-.12.081-.174.214-.129a.456.456 0 0 0 .301.01c.135-.049.183.023.207.141.037.172.079.342.127.552.105-.202.146-.386.197-.564.039-.136.104-.19.246-.135.049.019.11.034.158.021.214-.058.362-.028.351.268.06-.106.128-.118.206-.11a.86.86 0 0 0 .357-.016c.113-.035.152.02.178.112.034.126.084.247.109.375.029.155.122.2.267.198.198-.003.396-.002.595.003.845.021 1.691.046 2.536.063.122.003.165.04.163.167-.01.401-.001.804-.011 1.206-.003.136.046.174.177.171.307-.007.611.001.918-.004.125-.001.166.044.167.166.008.47.012.47-.46.47z"/></svg>
