<svg width="58" height="58" viewBox="0 0 58 58" fill="none" xmlns="http://www.w3.org/2000/svg"><path d="M14.3673 29.2061C14.3359 29.2528 14.2794 29.3352 14.2095 29.4374C11.6245 33.1948 7.94684 36.885 8.14224 38.1955C8.14941 38.243 8.19064 38.4626 8.30358 38.7324C8.94625 40.2633 10.7784 40.6308 11.1889 40.7133C11.568 40.7895 11.8038 40.7518 12.0001 40.6532C12.1453 40.5806 12.2761 40.4659 12.3873 40.301C12.407 40.2714 12.4832 40.1817 12.5558 40.0581C12.8588 39.5391 14.1477 36.721 14.2059 34.9911C14.2095 34.8844 14.2086 34.7867 14.2086 34.7867C14.1064 34.3161 14.0374 33.8411 13.9944 33.3624C13.9119 32.4536 13.9442 31.5492 14.0805 30.6475C14.154 30.1607 14.2606 29.6839 14.3673 29.2061Z" fill="#F9F9F9"/><path d="M10.9001 41.0369C9.68283 40.7456 8.63322 40.2131 8.00758 39.0748C7.96725 39.0004 7.92871 38.9995 7.87313 39.0542C7.77543 39.151 7.70821 39.2576 7.68132 39.3769C7.67863 39.3903 7.65712 39.5023 7.67953 39.6269C7.84535 40.534 8.50057 41.0736 8.50057 41.0736C8.50057 41.0736 9.15937 41.6168 10.5944 41.5747C10.6562 41.5729 10.7378 41.563 10.8131 41.5128C10.9117 41.4474 10.9538 41.3515 10.996 41.2045C11.0291 41.0871 11.013 41.0637 10.9001 41.0369Z" fill="#F9F9F9"/><path d="M26.6976 42.4594C25.5405 41.7423 24.2945 41.5182 22.9599 41.8248C22.2993 41.9772 21.6799 42.2272 21.1834 42.7023C20.8284 43.042 20.8472 43.3261 21.2273 43.6417C21.4478 43.8245 21.6907 43.9769 21.9318 44.1311C22.6946 44.6213 23.5085 44.953 24.4021 44.9333C24.619 44.9431 24.7983 44.9279 24.9758 44.9001C25.847 44.7639 26.5999 44.382 27.2534 43.8093C27.5231 43.5726 27.5285 43.3279 27.3242 43.0348C27.1583 42.7982 26.9441 42.6118 26.6976 42.4594Z" fill="#F9F9F9"/><path d="M36.3812 42.3841C35.1255 41.6885 33.8096 41.5594 32.4427 42.0031C31.8144 42.2066 31.2434 42.5167 30.7845 42.9981C30.4108 43.3907 30.4511 43.7062 30.9028 44.0064C31.1924 44.1992 31.5061 44.3471 31.818 44.4985C32.4338 44.797 33.0746 44.9933 33.7756 44.9772C34.1135 44.9897 34.4514 44.9449 34.784 44.858C35.6202 44.6384 36.3113 44.1848 36.8939 43.5663C37.1019 43.3458 37.1135 43.1316 36.9504 42.8887C36.807 42.6736 36.6098 42.5105 36.3812 42.3841Z" fill="#F9F9F9"/><path d="M15.5415 18.3076C15.5756 18.3408 15.6097 18.3749 15.6419 18.4089C15.8266 18.6052 15.8293 18.6097 16.0444 18.451C16.6109 18.0316 17.1182 17.5439 17.6291 17.0626C18.0665 16.6503 18.495 16.2281 18.8813 15.7665C18.9342 15.7038 18.9942 15.6437 19.013 15.5693C19.0139 15.512 18.9808 15.4851 18.9512 15.4555C18.8759 15.3793 18.7988 15.3049 18.7226 15.2296C18.5183 15.027 18.512 15.0199 18.2888 15.1982C17.2903 15.996 16.368 16.8735 15.5146 17.8209C15.2968 18.0647 15.3049 18.0728 15.5415 18.3076Z" fill="#F9F9F9"/><path d="M15.4583 25.1144C15.9378 25.9838 16.68 26.5745 17.5602 27.0128C18.7353 27.5981 20.0027 27.8787 21.2916 28.0768C22.9884 28.3376 24.7022 28.421 26.416 28.4613C27.3338 28.4837 28.2526 28.4649 29.1704 28.4649C30.9649 28.4837 32.7575 28.4703 34.5484 28.3376C35.5828 28.2614 36.6136 28.1556 37.6336 27.9683C38.7504 27.7631 39.8422 27.4762 40.8595 26.9564C42.6002 26.0663 43.4893 24.668 43.4625 22.7257C43.4445 21.3785 43.0232 20.1505 42.3116 19.0113C42.2802 18.9611 42.2416 18.918 42.1932 18.8804C41.8544 18.616 41.53 18.3354 41.2153 18.0441C40.5798 17.4579 39.9506 16.8672 39.3904 16.2084C39.3447 16.1546 39.2721 16.0973 39.2891 16.0292C39.3124 15.9332 39.2586 15.9064 39.1995 15.866C38.8544 15.6303 38.5012 15.4062 38.1355 15.2027C35.702 13.8493 33.0686 13.186 30.2944 13.0479C28.1109 12.9386 25.9606 13.16 23.8578 13.7776C22.3197 14.2293 20.8695 14.8675 19.5294 15.7414C19.4864 15.7692 19.4264 15.7862 19.412 15.8445C19.3789 15.9843 19.2776 16.0802 19.1888 16.1824C18.5273 16.9416 17.7986 17.6354 17.0466 18.3067C16.8153 18.5129 16.5859 18.7226 16.3197 18.8849C16.2453 18.9306 16.1879 18.9817 16.1422 19.0534C15.3328 20.3262 14.8766 21.6985 14.9483 23.2142C14.9761 23.881 15.1311 24.5219 15.4583 25.1144ZM36.2272 21.4538C36.2434 20.7035 36.2703 19.9542 36.5114 19.2317C36.5428 19.1367 36.5804 19.0426 36.6234 18.9521C36.9595 18.2458 37.5422 18.0558 38.235 18.4403C38.9906 18.8589 39.4666 19.5141 39.7758 20.2948C40.3136 21.6527 39.9121 23.4176 38.8445 24.3812C38.5066 24.6859 38.1194 24.8876 37.6354 24.7863C37.3235 24.7218 37.1003 24.5291 36.9192 24.2844C36.5445 23.778 36.3949 23.19 36.3016 22.5849C36.2443 22.2103 36.2165 21.8329 36.2272 21.4538ZM20.0932 18.7415C20.3424 18.5801 20.623 18.4851 20.9277 18.5165C21.3678 18.5622 21.6098 18.8562 21.7801 19.221C21.9675 19.6226 22.0544 20.0519 22.101 20.4866C22.1817 21.2458 22.2158 22.0059 22.1064 22.766C22.023 23.3486 21.8895 23.9178 21.565 24.4215C21.2997 24.8329 20.9501 25.1207 20.4141 25.0651C20.052 25.0274 19.758 24.8428 19.5043 24.6008C18.8895 24.0155 18.5766 23.2796 18.4332 22.463C18.3965 22.2533 18.3857 22.0409 18.3794 21.8231C18.4476 20.527 18.9665 19.4693 20.0932 18.7415Z" fill="#F9F9F9"/><path d="M42.4287 18.426C42.7577 18.6958 42.7631 18.6895 43.0642 18.3919C43.3125 18.1472 43.3125 18.1472 43.0768 17.8783C42.496 17.215 41.8506 16.6127 41.1999 16.0184C40.9094 15.7531 40.6145 15.4932 40.2955 15.2619C40.2327 15.2162 40.1655 15.1785 40.1108 15.1427C40.0472 15.1391 40.023 15.1776 39.9934 15.2054C39.8993 15.296 39.8159 15.4008 39.711 15.4788C39.5605 15.5918 39.5856 15.6859 39.6949 15.8105C40.5303 16.7597 41.449 17.6237 42.4287 18.426Z" fill="#F9F9F9"/><path d="M43.6328 29.2061C43.7395 29.683 43.8461 30.1607 43.9187 30.6457C44.0541 31.5474 44.0873 32.4518 44.0048 33.3607C43.9609 33.8402 43.8927 34.3152 43.7906 34.7849C43.7906 34.7849 43.7897 34.8835 43.7933 34.9893C43.8515 36.7192 45.1404 39.5382 45.4434 40.0563C45.516 40.18 45.5922 40.2696 45.6119 40.2992C45.7231 40.4641 45.8539 40.5788 45.9991 40.6514C46.1945 40.7491 46.4303 40.7877 46.8103 40.7115C47.2217 40.629 49.0538 40.2615 49.6956 38.7306C49.8094 38.4599 49.8498 38.2403 49.8569 38.1937C50.0523 36.8841 46.3747 33.193 43.7897 29.4356C43.7198 29.3352 43.6642 29.2537 43.6328 29.2061Z" fill="#F9F9F9"/><path d="M47.0994 41.0369C46.9865 41.0638 46.9704 41.0871 47.0035 41.2054C47.0448 41.3524 47.0878 41.4483 47.1864 41.5137C47.2617 41.5639 47.3432 41.5738 47.4051 41.5756C48.8401 41.6168 49.4989 41.0745 49.4989 41.0745C49.4989 41.0745 50.1532 40.5349 50.32 39.6278C50.3424 39.5033 50.3218 39.3903 50.3182 39.3778C50.2904 39.2586 50.2241 39.1519 50.1264 39.0551C50.0708 39.0004 50.0331 39.0022 49.9919 39.0757C49.3663 40.2123 48.3167 40.7456 47.0994 41.0369Z" fill="#F9F9F9"/><path d="M42.8292 27.8482C42.7217 27.4852 42.6293 27.1186 42.4653 26.7744C42.4026 26.6426 42.3318 26.6193 42.2233 26.7287C42.122 26.83 42.0198 26.9304 41.9096 27.0209C41.102 27.6851 40.1591 28.0831 39.1596 28.3681C37.5785 28.8189 35.9543 28.9937 34.3203 29.1085C33.1892 29.1873 32.0562 29.225 30.9223 29.2411C29.2901 29.2635 27.6579 29.2438 26.0265 29.1936C24.7071 29.1533 23.3904 29.0878 22.08 28.931C21.0618 28.8091 20.0534 28.6379 19.071 28.3394C17.8744 27.9755 16.7629 27.4691 15.9302 26.5001C15.8236 26.3764 15.7519 26.3953 15.682 26.553C15.552 26.8461 15.4498 27.1482 15.3602 27.4547C15.0886 28.3851 14.8071 29.3137 14.6888 30.2782C14.5463 31.4434 14.5571 32.6149 14.6485 33.7819C14.7534 35.1238 15.1244 36.4046 15.6497 37.6434C16.2995 39.1752 17.2084 40.5421 18.3468 41.7638C18.7976 42.2469 19.2404 42.7462 19.9521 42.8618C20.0166 42.8726 20.0794 42.8959 20.143 42.9129C20.4245 42.9918 20.4218 42.99 20.5437 42.739C20.5849 42.6548 20.6387 42.5741 20.6987 42.5015C20.8888 42.2675 21.1281 42.0874 21.3871 41.9368C22.6949 41.1794 24.0851 41.0476 25.5318 41.4492C26.2856 41.658 26.9811 41.987 27.5279 42.5598C27.7681 42.8107 27.9447 43.0993 27.9097 43.4642C27.8972 43.5959 27.9447 43.6219 28.0675 43.6219C28.6438 43.6192 29.2202 43.6183 29.7956 43.6318C29.9848 43.6363 30.0995 43.621 30.0798 43.388C30.0708 43.2759 30.1371 43.1612 30.1909 43.0545C30.3433 42.7561 30.5763 42.5248 30.8426 42.3312C32.0293 41.4689 33.3568 41.1391 34.816 41.3622C35.5402 41.4734 36.225 41.7046 36.8265 42.1295C37.116 42.3348 37.3786 42.5741 37.479 42.9299C37.5122 43.0474 37.5588 43.0689 37.6681 43.0348C37.9254 42.955 38.1835 42.8771 38.4444 42.8098C38.672 42.7507 38.8558 42.6297 39.0234 42.471C39.7064 41.8283 40.3347 41.1373 40.8779 40.3763C42.6195 37.9374 43.5311 35.2367 43.5078 32.2429C43.5051 31.7168 43.5024 31.1906 43.4441 30.6663C43.3375 29.7063 43.1026 28.7732 42.8292 27.8482ZM35.8952 35.6356C35.5653 35.6275 35.2355 35.6293 34.9065 35.615C34.7613 35.6087 34.6798 35.6383 34.6744 35.8023C34.6556 36.3464 34.5301 36.8779 34.4655 37.4166C34.444 37.5941 34.254 37.7446 34.0362 37.7608C33.4984 37.8011 32.9606 37.8379 32.4219 37.8692C31.3929 37.9293 30.3639 38.0037 29.3331 38.0333C28.7236 38.0512 28.1105 38.0001 27.5001 37.9714C26.9731 37.9472 26.4469 37.9123 25.9208 37.8791C25.3704 37.8441 24.8201 37.8074 24.2706 37.7679C24.0609 37.7527 23.9641 37.6613 23.9058 37.4372C23.7794 36.9505 23.6934 36.4566 23.6199 35.96C23.5822 35.7073 23.5805 35.6929 23.3483 35.7431C23.1762 35.7808 23.1072 35.7225 23.0902 35.5432C23.0552 35.1677 23.0444 35.1677 23.4344 35.1345C23.8287 35.1014 24.2231 35.0709 24.6166 35.0341C24.7322 35.0234 24.7726 35.0574 24.7833 35.1757C24.8192 35.6015 24.8237 35.6006 24.4087 35.6517C24.19 35.6786 24.1882 35.6786 24.2267 35.9036C24.2912 36.2756 24.3594 36.6475 24.4248 37.0195C24.4436 37.1289 24.4813 37.197 24.6166 37.2042C25.8921 37.2705 27.1667 37.3538 28.4422 37.4103C29.4496 37.4551 30.4562 37.387 31.4619 37.3189C32.1431 37.2723 32.8261 37.2382 33.5082 37.1979C33.58 37.1934 33.6517 37.1817 33.7234 37.1826C33.8399 37.1835 33.8937 37.1298 33.9098 37.0168C33.9708 36.6081 34.038 36.2003 34.072 35.7879C34.0837 35.6472 34.0371 35.6024 33.8928 35.606C33.5513 35.615 33.2089 35.6051 32.8665 35.6114C32.7401 35.6132 32.6998 35.5683 32.7024 35.4464C32.715 34.9167 32.6406 35.0135 33.1309 35.0081C33.545 35.0037 33.9582 35.0072 34.3723 35.0072V35.0323C34.8644 35.0323 35.3565 35.035 35.8486 35.0305C35.9911 35.0288 36.0646 35.061 36.0332 35.2224C36.0171 35.3075 36.0314 35.3989 36.0395 35.4868C36.0467 35.5908 36.0054 35.6383 35.8952 35.6356ZM35.6612 34.5089C34.7793 34.5089 33.8964 34.5062 33.0144 34.5116C32.8584 34.5125 32.7903 34.4847 32.7966 34.309C32.8109 33.9074 32.8019 33.9074 33.2098 33.9074C33.4921 33.9074 33.7736 33.9021 34.0559 33.9092C34.1832 33.9128 34.2226 33.8671 34.2181 33.7443C34.2092 33.5381 34.2092 33.3302 34.219 33.124C34.2253 32.986 34.1823 32.9403 34.0371 32.9385C33.3353 32.9322 32.6334 32.9161 31.9316 32.9017C31.7093 32.8973 31.4879 32.882 31.2656 32.8811C31.1509 32.8811 31.0998 32.8453 31.1097 32.727C31.1141 32.6812 31.1428 32.6069 31.0657 32.5943C30.9922 32.5827 30.9609 32.6508 30.9474 32.7063C30.9026 32.9017 30.8605 33.098 30.8282 33.2961C30.8112 33.3983 30.7816 33.4413 30.6651 33.4127C30.5799 33.392 30.4768 33.3786 30.3989 33.4073C30.2044 33.4781 30.1766 33.3634 30.1488 33.2253C30.1147 33.0532 30.0923 32.8775 30.0125 32.675C29.9364 32.9125 29.8682 33.1133 29.8073 33.3159C29.775 33.4243 29.7302 33.4817 29.6056 33.4252C29.5097 33.3813 29.4021 33.3858 29.3053 33.4171C29.1897 33.4548 29.153 33.4037 29.1315 33.3078C29.0875 33.1133 29.0418 32.9197 28.9862 32.6848C28.8769 32.9152 28.8285 33.1187 28.7702 33.3185C28.7389 33.4243 28.6931 33.4673 28.5766 33.4225C28.4807 33.3858 28.3732 33.384 28.2763 33.4225C28.1553 33.4709 28.1159 33.4145 28.0872 33.3123C28.0343 33.1213 27.9743 32.9322 27.9178 32.7422C27.9044 32.7449 27.89 32.7476 27.8766 32.7494C27.8327 32.9331 27.7869 33.116 27.7448 33.2997C27.7233 33.3929 27.6884 33.4458 27.5727 33.4145C27.4696 33.3858 27.3576 33.384 27.2536 33.4252C27.1434 33.4691 27.103 33.4171 27.0771 33.3212C27.0295 33.1509 26.9758 32.9815 26.9202 32.813C26.896 32.7395 26.8628 32.6526 26.7669 32.6678C26.6692 32.683 26.7176 32.7754 26.7185 32.83C26.7203 32.9833 26.5993 32.9609 26.515 32.9681C26.1449 33.0003 25.7738 33.0219 25.4036 33.0487C24.9796 33.0792 24.5557 33.1169 24.1308 33.142C24.0008 33.15 23.9695 33.2074 23.9784 33.3221C23.9955 33.5399 24.0107 33.7577 24.0134 33.9765C24.0152 34.0957 24.0627 34.1306 24.1765 34.1217C24.6247 34.0876 25.0746 34.0697 25.5219 34.0249C25.9997 33.9773 25.9952 33.9675 26.0543 34.4255C26.0696 34.5483 26.0355 34.6003 25.9082 34.6084C25.3937 34.6406 24.8792 34.6774 24.3656 34.7132C23.5464 34.7697 22.7271 34.8253 21.9079 34.8844C21.8012 34.8925 21.7582 34.8602 21.7492 34.7518C21.7107 34.2848 21.7071 34.2794 22.1786 34.2337C22.5246 34.2005 22.8723 34.1772 23.2183 34.162C23.3447 34.1557 23.3842 34.1109 23.377 33.9908C23.3591 33.7022 23.3474 33.4127 23.3393 33.124C23.3366 33.0362 23.3483 32.9466 23.3635 32.8596C23.3967 32.6687 23.5087 32.5638 23.6997 32.5495C24.5189 32.4885 25.3382 32.4285 26.1565 32.3711C26.4227 32.3523 26.4281 32.3532 26.472 32.0897C26.4917 31.9731 26.5195 31.8575 26.5357 31.741C26.5518 31.6227 26.6074 31.568 26.7293 31.6056C26.8324 31.6379 26.9363 31.6263 27.0304 31.5895C27.1667 31.5366 27.2151 31.594 27.2456 31.7123C27.2742 31.8235 27.3137 31.9328 27.3854 32.0431C27.4266 31.8745 27.4732 31.7078 27.5055 31.5384C27.5261 31.4327 27.5808 31.3968 27.6812 31.4183C27.8004 31.4443 27.9214 31.447 28.037 31.4102C28.1527 31.3744 28.1885 31.4344 28.2154 31.5223C28.2826 31.7491 28.3498 31.9749 28.4323 32.2546C28.5175 31.9866 28.5936 31.767 28.6546 31.5447C28.6878 31.4246 28.7353 31.3708 28.8688 31.4156C28.9647 31.4479 29.0678 31.4622 29.17 31.4255C29.3053 31.3771 29.3528 31.4497 29.377 31.5662C29.4138 31.7383 29.4559 31.9086 29.5034 32.1184C29.6101 31.9158 29.6504 31.732 29.7015 31.5537C29.7401 31.4174 29.8055 31.3636 29.9471 31.4192C29.9955 31.438 30.0574 31.4533 30.1049 31.4407C30.3191 31.3825 30.4679 31.412 30.4562 31.7078C30.5154 31.6012 30.5835 31.5895 30.6615 31.5976C30.7816 31.6101 30.9035 31.6182 31.0191 31.5823C31.133 31.5465 31.1715 31.6021 31.1966 31.6944C31.2316 31.8199 31.2818 31.9418 31.306 32.0691C31.3355 32.2241 31.4288 32.2698 31.5731 32.268C31.7712 32.2645 31.9692 32.2662 32.1673 32.2707C33.0126 32.2913 33.8587 32.3164 34.704 32.3344C34.8268 32.3371 34.8698 32.3738 34.8671 32.5011C34.8572 32.9026 34.8662 33.3051 34.8563 33.7067C34.8528 33.8429 34.9029 33.8805 35.0329 33.8779C35.3395 33.8716 35.6451 33.8796 35.9508 33.8743C36.0762 33.8725 36.1166 33.9173 36.1184 34.0401C36.1291 34.5089 36.1327 34.5089 35.6612 34.5089Z" fill="#F9F9F9"/><path d="M36.032 35.2206C36.0634 35.0593 35.9908 35.027 35.8474 35.0288C35.3553 35.0342 34.8632 35.0306 34.3711 35.0306V35.0055C33.957 35.0055 33.5438 35.0019 33.1297 35.0064C32.6385 35.0117 32.7138 34.914 32.7012 35.4447C32.6985 35.5675 32.7398 35.6123 32.8653 35.6096C33.2077 35.6033 33.5501 35.6141 33.8916 35.6042C34.0359 35.6006 34.0825 35.6455 34.0708 35.7862C34.0368 36.1985 33.9695 36.6063 33.9086 37.015C33.8925 37.128 33.8387 37.1818 33.7221 37.1809C33.6504 37.1809 33.5787 37.1925 33.507 37.1961C32.8249 37.2364 32.1419 37.2705 31.4607 37.3171C30.455 37.3852 29.4484 37.4533 28.4409 37.4085C27.1655 37.3521 25.8909 37.2687 24.6154 37.2024C24.48 37.1952 24.4424 37.1271 24.4236 37.0177C24.359 36.6458 24.29 36.2738 24.2255 35.9018C24.1869 35.6768 24.1887 35.6768 24.4074 35.6499C24.8233 35.5988 24.818 35.5997 24.7821 35.174C24.7722 35.0557 24.731 35.0216 24.6154 35.0324C24.2219 35.0691 23.8275 35.0996 23.4331 35.1328C23.0432 35.1659 23.0531 35.165 23.0889 35.5415C23.106 35.7207 23.175 35.779 23.3471 35.7414C23.5792 35.6912 23.581 35.7055 23.6187 35.9583C23.6922 36.4548 23.7782 36.9496 23.9046 37.4354C23.9629 37.6586 24.0606 37.7509 24.2694 37.7662C24.8189 37.8065 25.3692 37.8424 25.9196 37.8773C26.4466 37.9105 26.9728 37.9454 27.4989 37.9696C28.1093 37.9983 28.7224 38.0494 29.3319 38.0315C30.3627 38.0019 31.3917 37.9275 32.4207 37.8675C32.9594 37.8361 33.4972 37.7993 34.035 37.759C34.2528 37.7429 34.4428 37.5923 34.4643 37.4148C34.5289 36.8761 34.6543 36.3446 34.6732 35.8005C34.6785 35.6374 34.7601 35.6078 34.9053 35.6132C35.2343 35.6266 35.565 35.6257 35.894 35.6338C36.0042 35.6365 36.0463 35.589 36.0365 35.4832C36.0302 35.3972 36.015 35.3057 36.032 35.2206Z" fill="#469C57"/><path d="M36.9203 24.2844C37.1014 24.5291 37.3246 24.7218 37.6365 24.7863C38.1205 24.8876 38.5077 24.6859 38.8456 24.3812C39.9132 23.4176 40.3147 21.6527 39.7769 20.2948C39.4677 19.515 38.9926 18.8598 38.2361 18.4403C37.5424 18.0558 36.9607 18.2458 36.6245 18.9521C36.5815 19.0426 36.5439 19.1367 36.5125 19.2317C36.2705 19.9542 36.2445 20.7035 36.2283 21.4538C36.2176 21.8329 36.2454 22.2103 36.3036 22.584C36.396 23.19 36.5456 23.7779 36.9203 24.2844Z" fill="#469C57"/><path d="M35.9526 33.8716C35.6469 33.8778 35.3404 33.8689 35.0347 33.8752C34.9048 33.8778 34.8546 33.8402 34.8581 33.704C34.8671 33.3024 34.859 32.8999 34.8689 32.4984C34.8716 32.3711 34.8286 32.3352 34.7058 32.3317C33.8596 32.3137 33.0144 32.2886 32.1691 32.268C31.971 32.2635 31.773 32.2617 31.5749 32.2653C31.4297 32.2671 31.3364 32.2214 31.3078 32.0663C31.2836 31.9391 31.2343 31.8172 31.1984 31.6917C31.1724 31.5994 31.1348 31.5447 31.0209 31.5796C30.9053 31.6155 30.7834 31.6074 30.6633 31.5949C30.5844 31.5868 30.5172 31.5985 30.458 31.7051C30.4697 31.4084 30.3209 31.3797 30.1067 31.438C30.0592 31.4506 29.9973 31.4353 29.9489 31.4165C29.8064 31.3609 29.7419 31.4138 29.7033 31.5509C29.6531 31.7293 29.6119 31.9131 29.5052 32.1156C29.4568 31.9059 29.4147 31.7356 29.3789 31.5635C29.3546 31.4479 29.3062 31.3744 29.1718 31.4228C29.0696 31.4595 28.9665 31.4452 28.8706 31.4129C28.7371 31.369 28.6896 31.4219 28.6564 31.542C28.5946 31.7652 28.5193 31.9839 28.4341 32.2519C28.3517 31.9722 28.2835 31.7463 28.2172 31.5196C28.1912 31.4308 28.1545 31.3717 28.0388 31.4075C27.9241 31.4434 27.8031 31.4407 27.683 31.4156C27.5817 31.3941 27.5279 31.4299 27.5073 31.5357C27.4741 31.7051 27.4284 31.8727 27.3872 32.0403C27.3155 31.9301 27.2761 31.8207 27.2474 31.7096C27.2169 31.5922 27.1685 31.5339 27.0322 31.5868C26.939 31.6227 26.8342 31.6352 26.7311 31.6029C26.6083 31.5653 26.5536 31.62 26.5375 31.7383C26.5213 31.8548 26.4935 31.9704 26.4738 32.087C26.429 32.3505 26.4245 32.3496 26.1583 32.3684C25.3391 32.4249 24.5198 32.4849 23.7015 32.5468C23.5106 32.5611 23.3985 32.666 23.3653 32.8569C23.3501 32.9439 23.3385 33.0335 23.3411 33.1213C23.3492 33.4109 23.36 33.6995 23.3788 33.9881C23.386 34.1091 23.3474 34.153 23.2201 34.1593C22.8733 34.1754 22.5264 34.1978 22.1804 34.231C21.7089 34.2767 21.7125 34.2812 21.751 34.7491C21.76 34.8584 21.803 34.8898 21.9097 34.8818C22.7289 34.8226 23.5482 34.767 24.3674 34.7105C24.8819 34.6747 25.3964 34.6379 25.91 34.6057C26.0373 34.5976 26.0714 34.5456 26.0561 34.4228C25.997 33.9648 26.0015 33.9747 25.5237 34.0222C25.0764 34.0661 24.6265 34.0849 24.1783 34.119C24.0645 34.1279 24.017 34.093 24.0152 33.9738C24.0125 33.755 23.9973 33.5372 23.9802 33.3194C23.9713 33.2047 24.0026 33.1464 24.1326 33.1393C24.5575 33.1142 24.9814 33.0774 25.4054 33.046C25.7765 33.0192 26.1476 32.9976 26.5169 32.9654C26.6011 32.9582 26.7221 32.9806 26.7203 32.8273C26.7203 32.7718 26.671 32.6803 26.7687 32.6651C26.8646 32.6499 26.8978 32.7368 26.922 32.8103C26.9767 32.9788 27.0305 33.1482 27.0789 33.3185C27.1057 33.4144 27.1452 33.4673 27.2554 33.4225C27.3585 33.3813 27.4706 33.3831 27.5745 33.4118C27.6911 33.444 27.7251 33.3911 27.7466 33.297C27.7888 33.1133 27.8345 32.9304 27.8784 32.7467C27.8918 32.744 27.9062 32.7413 27.9196 32.7395C27.977 32.9295 28.0361 33.1186 28.089 33.3096C28.1177 33.4118 28.1571 33.4682 28.2782 33.4198C28.375 33.3804 28.4816 33.3822 28.5784 33.4198C28.6941 33.4646 28.7407 33.4225 28.772 33.3158C28.8303 33.1169 28.8787 32.9125 28.988 32.6821C29.0427 32.917 29.0893 33.1115 29.1333 33.3051C29.1548 33.401 29.1915 33.4521 29.3071 33.4144C29.4039 33.3831 29.5115 33.3786 29.6074 33.4225C29.732 33.479 29.7768 33.4216 29.8091 33.3132C29.87 33.1106 29.9382 32.9098 30.0144 32.6723C30.0941 32.8748 30.1165 33.0505 30.1506 33.2226C30.1784 33.3607 30.2053 33.4754 30.4007 33.4046C30.4796 33.3768 30.5826 33.3893 30.6669 33.41C30.7834 33.4386 30.8139 33.3956 30.83 33.2934C30.8632 33.0953 30.9044 32.899 30.9492 32.7036C30.9618 32.6472 30.994 32.5799 31.0675 32.5916C31.1446 32.6033 31.1159 32.6785 31.1115 32.7243C31.1007 32.8435 31.1518 32.8784 31.2674 32.8784C31.4897 32.8784 31.7111 32.8937 31.9334 32.899C32.6352 32.9134 33.3371 32.9295 34.0389 32.9358C34.1832 32.9376 34.2271 32.9833 34.2208 33.1213C34.211 33.3275 34.2119 33.5354 34.22 33.7416C34.2253 33.8644 34.185 33.9092 34.0577 33.9065C33.7754 33.8994 33.4939 33.9047 33.2116 33.9047C32.8037 33.9047 32.8136 33.9047 32.7984 34.3063C32.7921 34.482 32.8602 34.5107 33.0162 34.5089C33.8982 34.5035 34.7811 34.5062 35.6631 34.5062C36.1345 34.5062 36.1309 34.5062 36.122 34.0347C36.1184 33.9146 36.0781 33.8698 35.9526 33.8716Z" fill="#469C57"/><path d="M19.5043 24.6017C19.758 24.8437 20.052 25.0283 20.4141 25.066C20.951 25.1216 21.3005 24.8338 21.565 24.4224C21.8894 23.9187 22.023 23.3495 22.1063 22.7669C22.2157 22.0068 22.1807 21.2458 22.101 20.4875C22.0553 20.0519 21.9683 19.6226 21.7801 19.2219C21.6098 18.8571 21.3678 18.564 20.9277 18.5174C20.6229 18.486 20.3424 18.581 20.0932 18.7424C18.9665 19.4693 18.4475 20.527 18.3794 21.8248C18.3857 22.0427 18.3964 22.2542 18.4332 22.4648C18.5766 23.2805 18.8894 24.0164 19.5043 24.6017Z" fill="#469C57"/><path d="M29 0C12.9834 0 0 12.9834 0 29C0 45.0166 12.9834 58 29 58C45.0166 58 58 45.0166 58 29C58 12.9834 45.0157 0 29 0ZM39.7112 15.4788C39.8152 15.4008 39.8985 15.2959 39.9935 15.2054C40.0222 15.1776 40.0473 15.1391 40.111 15.1427C40.1656 15.1776 40.2338 15.2162 40.2956 15.2619C40.6147 15.4931 40.9105 15.754 41.2 16.0184C41.8507 16.6136 42.4961 17.215 43.0769 17.8783C43.3127 18.1472 43.3127 18.1472 43.0644 18.3919C42.7632 18.6895 42.7578 18.6948 42.4289 18.4259C41.4492 17.6237 40.5304 16.7597 39.696 15.8104C39.5857 15.685 39.5606 15.5908 39.7112 15.4788ZM15.5146 17.8218C16.3671 16.8744 17.2894 15.9969 18.2888 15.1991C18.512 15.0208 18.5183 15.027 18.7226 15.2305C18.7988 15.3058 18.875 15.3811 18.9512 15.4564C18.9808 15.486 19.0139 15.5129 19.013 15.5702C18.9942 15.6446 18.9342 15.7047 18.8813 15.7674C18.495 16.2281 18.0674 16.6512 17.6291 17.0635C17.1182 17.5448 16.6109 18.0316 16.0444 18.4519C15.8302 18.6106 15.8275 18.607 15.6419 18.4098C15.6097 18.3749 15.5756 18.3417 15.5415 18.3085C15.3049 18.0728 15.2968 18.0647 15.5146 17.8218ZM16.1394 19.0516C16.1851 18.9799 16.2425 18.9288 16.3169 18.8831C16.5831 18.7199 16.8125 18.5111 17.0438 18.3049C17.7958 17.6336 18.5245 16.9398 19.186 16.1806C19.2748 16.0784 19.3752 15.9825 19.4092 15.8427C19.4236 15.7844 19.4827 15.7674 19.5266 15.7396C20.8676 14.8657 22.3169 14.2284 23.855 13.7758C25.9578 13.1582 28.1081 12.9368 30.2916 13.0461C33.0667 13.1851 35.6992 13.8484 38.1327 15.2009C38.4985 15.4044 38.8516 15.6285 39.1967 15.8642C39.2559 15.9046 39.3096 15.9323 39.2863 16.0274C39.2702 16.0955 39.3419 16.1537 39.3876 16.2066C39.9478 16.8654 40.5771 17.457 41.2126 18.0423C41.5281 18.3336 41.8516 18.6151 42.1905 18.8786C42.2389 18.9162 42.2774 18.9593 42.3088 19.0095C43.0205 20.1487 43.4417 21.3776 43.4597 22.7239C43.4866 24.6662 42.5974 26.0645 40.8567 26.9546C39.8403 27.4744 38.7476 27.7613 37.6308 27.9665C36.6108 28.1539 35.5809 28.2596 34.5456 28.3358C32.7547 28.4676 30.9621 28.4819 29.1676 28.4631C28.2498 28.4631 27.331 28.481 26.4132 28.4595C24.6994 28.4183 22.9865 28.3349 21.2888 28.075C19.9999 27.8769 18.7334 27.5963 17.5574 27.011C16.6772 26.5727 15.9359 25.982 15.4555 25.1126C15.1283 24.5201 14.9742 23.8792 14.9428 23.2115C14.8738 21.6967 15.3291 20.3244 16.1394 19.0516ZM10.9962 41.2054C10.955 41.3524 10.912 41.4483 10.8134 41.5137C10.7381 41.5639 10.6565 41.5738 10.5947 41.5756C9.15964 41.6168 8.50083 41.0745 8.50083 41.0745C8.50083 41.0745 7.84651 40.5349 7.67979 39.6278C7.65738 39.5032 7.678 39.3903 7.68158 39.3778C7.70937 39.2585 7.7757 39.1519 7.8734 39.0551C7.92897 39.0004 7.96662 39.0022 8.00785 39.0757C8.63349 40.2131 9.6831 40.7465 10.9003 41.0378C11.0133 41.0638 11.0294 41.0871 10.9962 41.2054ZM13.9954 33.3607C14.0393 33.8402 14.1074 34.3153 14.2096 34.7849C14.2096 34.7849 14.2105 34.8835 14.2069 34.9893C14.1486 36.7192 12.8597 39.5382 12.5567 40.0563C12.4841 40.18 12.408 40.2696 12.3882 40.2992C12.2771 40.4641 12.1462 40.5788 12.001 40.6514C11.8056 40.7491 11.5699 40.7877 11.1898 40.7115C10.7784 40.629 8.94631 40.2615 8.30454 38.7306C8.1907 38.4599 8.15037 38.2403 8.1432 38.1937C7.9478 36.8842 11.6255 33.1931 14.2105 29.4356C14.2804 29.3343 14.336 29.2519 14.3682 29.2044C14.2616 29.6812 14.1549 30.159 14.0823 30.6439C13.9461 31.5474 13.9129 32.4518 13.9954 33.3607ZM27.253 43.8092C26.6005 44.382 25.8467 44.7638 24.9755 44.9001C24.798 44.9279 24.6187 44.9431 24.4018 44.9332C23.5082 44.9538 22.6943 44.6213 21.9315 44.131C21.6904 43.976 21.4475 43.8245 21.227 43.6416C20.8478 43.3261 20.829 43.042 21.1831 42.7023C21.6796 42.2272 22.299 41.9762 22.9596 41.8247C24.2933 41.5182 25.5393 41.7423 26.6973 42.4594C26.9438 42.6117 27.158 42.7982 27.3239 43.0357C27.5282 43.3279 27.5219 43.5735 27.253 43.8092ZM36.8949 43.5663C36.3123 44.1848 35.6212 44.6392 34.7849 44.8579C34.4533 44.9449 34.1154 44.9897 33.7766 44.9772C33.0756 44.9933 32.4339 44.797 31.819 44.4985C31.507 44.347 31.1933 44.1991 30.9038 44.0064C30.453 43.7062 30.4117 43.3906 30.7855 42.9981C31.2444 42.5158 31.8154 42.2066 32.4437 42.0031C33.8106 41.5594 35.1264 41.6885 36.3822 42.3841C36.6108 42.5104 36.808 42.6736 36.9523 42.8887C37.1145 43.1316 37.1029 43.3458 36.8949 43.5663ZM40.8782 40.3763C40.3341 41.1373 39.7058 41.8274 39.0237 42.471C38.8561 42.6288 38.6723 42.7507 38.4447 42.8098C38.1838 42.877 37.9257 42.955 37.6684 43.0348C37.5591 43.0689 37.5125 43.0482 37.4793 42.9299C37.3798 42.5741 37.1163 42.3348 36.8268 42.1295C36.2253 41.7037 35.5406 41.4725 34.8163 41.3622C33.358 41.1391 32.0305 41.4698 30.8429 42.3312C30.5758 42.5248 30.3427 42.756 30.1912 43.0545C30.1374 43.1612 30.0702 43.2759 30.0801 43.388C30.0998 43.6201 29.9851 43.6362 29.7959 43.6318C29.2196 43.6183 28.6442 43.6192 28.0678 43.6219C27.945 43.6219 27.8975 43.5959 27.9101 43.4641C27.945 43.0993 27.7684 42.8098 27.5282 42.5597C26.9815 41.987 26.2859 41.6589 25.5321 41.4492C24.0854 41.0476 22.6952 41.1794 21.3874 41.9368C21.1284 42.0865 20.8891 42.2675 20.699 42.5015C20.6399 42.575 20.5852 42.6548 20.544 42.739C20.4212 42.9909 20.4248 42.9918 20.1433 42.9129C20.0797 42.895 20.0169 42.8717 19.9524 42.8618C19.2407 42.7471 18.7979 42.2469 18.3471 41.7638C17.2087 40.543 16.2998 39.1752 15.65 37.6434C15.1247 36.4046 14.7528 35.1238 14.6488 33.7819C14.5574 32.6149 14.5475 31.4434 14.6891 30.2782C14.8065 29.3137 15.088 28.3851 15.3605 27.4547C15.4501 27.1482 15.5532 26.8452 15.6823 26.553C15.7522 26.3953 15.8239 26.3764 15.9305 26.5001C16.7632 27.4691 17.8747 27.9755 19.0713 28.3394C20.0537 28.6379 21.0621 28.8091 22.0803 28.931C23.3916 29.0878 24.7083 29.1533 26.0269 29.1936C27.6582 29.2429 29.2904 29.2635 30.9226 29.2411C32.0565 29.225 33.1895 29.1873 34.3206 29.1085C35.9547 28.9946 37.5788 28.8189 39.16 28.3681C40.1585 28.083 41.1023 27.6851 41.9099 27.0209C42.0201 26.9304 42.1223 26.83 42.2236 26.7287C42.3321 26.6193 42.4029 26.6426 42.4656 26.7744C42.6297 27.1186 42.722 27.4852 42.8295 27.8482C43.1029 28.7732 43.3369 29.7063 43.4444 30.6663C43.5027 31.1897 43.5054 31.7159 43.5081 32.2429C43.5323 35.2358 42.6198 37.9373 40.8782 40.3763ZM50.1266 39.0542C50.2243 39.151 50.2915 39.2576 50.3184 39.3769C50.3211 39.3903 50.3426 39.5023 50.3202 39.6269C50.1544 40.534 49.4992 41.0736 49.4992 41.0736C49.4992 41.0736 48.8404 41.6168 47.4053 41.5747C47.3435 41.5729 47.2619 41.563 47.1866 41.5128C47.088 41.4474 47.0459 41.3515 47.0038 41.2045C46.9706 41.0862 46.9867 41.0629 47.0997 41.036C48.3169 40.7447 49.3665 40.2122 49.9921 39.0739C50.0325 39.0004 50.071 38.9995 50.1266 39.0542ZM49.8568 38.1955C49.8496 38.243 49.8084 38.4626 49.6955 38.7324C49.0528 40.2633 47.2207 40.6308 46.8102 40.7133C46.431 40.7895 46.1953 40.7518 45.999 40.6532C45.8538 40.5806 45.7229 40.4659 45.6118 40.301C45.592 40.2714 45.5159 40.1818 45.4432 40.0581C45.1403 39.5391 43.8514 36.721 43.7931 34.9911C43.7895 34.8844 43.7904 34.7867 43.7904 34.7867C43.8926 34.3162 43.9616 33.8411 44.0046 33.3625C44.0871 32.4536 44.0548 31.5492 43.9186 30.6475C43.846 30.1625 43.7393 29.6848 43.6327 29.2079C43.664 29.2546 43.7205 29.337 43.7904 29.4392C46.3745 33.1948 50.0522 36.8851 49.8568 38.1955Z" fill="#469C57"/></svg>
