<svg xmlns="http://www.w3.org/2000/svg" xmlns:xlink="http://www.w3.org/1999/xlink" x="0" y="0" width="773.6000366210938" height="577.8624877929688" style="
        width:773.6000366210938px;
        height:577.8624877929688px;
        background: transparent;
        fill: none;
">
        
        
        <svg xmlns="http://www.w3.org/2000/svg" class="role-diagram-draw-area" style="overflow: visible;"><g class="shapes-region" style="stroke: black; fill: none;"><g class="composite-shape"><path class="real" d=" M8,15.28 L762.96,15.28 L762.96,560.24 L8,560.24 Z" style="stroke-width: 1; stroke: none; stroke-opacity: 1; fill: rgb(65, 117, 5); fill-opacity: 1;"/></g><g class="composite-shape"><path class="real" d=" M86.45,87.65 L705.89,87.65 L705.89,528.57 L86.45,528.57 Z" style="stroke-width: 3; stroke: rgb(0, 0, 0); fill: none; fill-opacity: 1;"/></g><g class="arrow-line"><path class="connection real" stroke-dasharray="" d="  M68.6,99.57 L68.6,516.64" style="stroke: rgb(0, 0, 0); stroke-width: 1; fill: none; fill-opacity: 1;"/><g stroke="none" fill="#000" transform="matrix(-1.8369701987210297e-16,-1,1,-1.8369701987210297e-16,68.5992112476319,519.6439489139715)" style="stroke: none; fill: rgb(0, 0, 0); stroke-width: 1;"><path d=" M5.36,-2.57 L0,0 L5.36,2.57 Z"/></g><g stroke="none" fill="#000" transform="matrix(6.123233995736766e-17,1,-1,6.123233995736766e-17,68.5992112476319,96.57143472992072)" style="stroke: none; fill: rgb(0, 0, 0); stroke-width: 1;"><path d=" M5.36,-2.57 L0,0 L5.36,2.57 Z"/></g></g><g class="arrow-line"><path class="connection real" stroke-dasharray="" d="  M98.38,69.79 L693.96,69.79" style="stroke: rgb(0, 0, 0); stroke-width: 1; fill: none; fill-opacity: 1;"/><g stroke="none" fill="#000" transform="matrix(-1,1.2246467991473532e-16,-1.2246467991473532e-16,-1,696.9600761960954,69.79469332586686)" style="stroke: none; fill: rgb(0, 0, 0); stroke-width: 1;"><path d=" M5.36,-2.57 L0,0 L5.36,2.57 Z"/></g><g stroke="none" fill="#000" transform="matrix(1,0,0,1,95.37595265168578,69.79469332586686)" style="stroke: none; fill: rgb(0, 0, 0); stroke-width: 1;"><path d=" M5.36,-2.57 L0,0 L5.36,2.57 Z"/></g></g><g class="composite-shape"><path class="real" d=" M123.22,124.24 L669.11,124.24 L669.11,491.97 L123.22,491.97 Z" style="stroke-width: 1; stroke: rgb(0, 0, 0); fill: none; fill-opacity: 1;"/></g><g class="composite-shape"><path class="real" d=" M98.47,245.63 L123.03,245.63 L123.03,370.59 L98.47,370.59 Z" style="stroke-width: 1; stroke: rgb(0, 0, 0); fill: none; fill-opacity: 1;"/></g><g class="composite-shape"><path class="real" d=" M669.25,245.63 L693.82,245.63 L693.82,370.59 L669.25,370.59 Z" style="stroke-width: 1; stroke: rgb(0, 0, 0); fill: none; fill-opacity: 1;"/></g><g class="composite-shape"><path class="real" d=" M123.14,200.88 L209.98,200.88 L209.98,415.34 L123.14,415.34 Z" style="stroke-width: 1; stroke: rgb(0, 0, 0); fill: none; fill-opacity: 1;"/></g><g class="composite-shape"><path class="real" d=" M582.17,200.88 L669.01,200.88 L669.01,415.34 L582.17,415.34 Z" style="stroke-width: 1; stroke: rgb(0, 0, 0); fill: none; fill-opacity: 1;"/></g><g class="composite-shape"><path class="real" d=" M469.18,308.11 C469.18,306.59 470.41,305.35 471.93,305.35 C473.45,305.35 474.69,306.59 474.69,308.11 C474.69,309.63 473.45,310.86 471.93,310.86 C470.41,310.86 469.18,309.63 469.18,308.11 Z" style="stroke-width: 1; stroke: rgb(0, 0, 0); fill: rgb(0, 0, 0); fill-opacity: 1;"/></g><g class="arrow-line"><path class="connection real" stroke-dasharray="" d="  M460.01,325.96 L135.71,325.96" style="stroke: rgb(0, 0, 0); stroke-width: 1; fill: none; fill-opacity: 1;"/><g stroke="none" fill="#000" transform="matrix(1,-2.4492935982947064e-16,2.4492935982947064e-16,1,132.71038377947633,325.958852757982)" style="stroke: none; fill: rgb(0, 0, 0); stroke-width: 1;"><path d=" M5.36,-2.57 L0,0 L5.36,2.57 Z"/></g><g stroke="none" fill="#000" transform="matrix(-1,1.2246467991473532e-16,-1.2246467991473532e-16,-1,463.00785974360764,325.95885275798196)" style="stroke: none; fill: rgb(0, 0, 0); stroke-width: 1;"><path d=" M5.36,-2.57 L0,0 L5.36,2.57 Z"/></g></g><g class="arrow-line"><path class="connection real" stroke-dasharray="" d="  M656.05,183.02 L593.06,183.02" style="stroke: rgb(0, 0, 0); stroke-width: 1; fill: none; fill-opacity: 1;"/><g stroke="none" fill="#000" transform="matrix(1,-2.4492935982947064e-16,2.4492935982947064e-16,1,590.0633494926717,183.02460632598132)" style="stroke: none; fill: rgb(0, 0, 0); stroke-width: 1;"><path d=" M5.36,-2.57 L0,0 L5.36,2.57 Z"/></g><g stroke="none" fill="#000" transform="matrix(-1,1.2246467991473532e-16,-1.2246467991473532e-16,-1,659.0481723118157,183.0246063259813)" style="stroke: none; fill: rgb(0, 0, 0); stroke-width: 1;"><path d=" M5.36,-2.57 L0,0 L5.36,2.57 Z"/></g></g><g class="arrow-line"><path class="connection real" stroke-dasharray="" d="  M564.32,403.41 L564.32,212.8" style="stroke: rgb(0, 0, 0); stroke-width: 1; fill: none; fill-opacity: 1;"/><g stroke="none" fill="#000" transform="matrix(3.061616997868383e-16,1,-1,3.061616997868383e-16,564.3231169237397,209.80134773003522)" style="stroke: none; fill: rgb(0, 0, 0); stroke-width: 1;"><path d=" M5.36,-2.57 L0,0 L5.36,2.57 Z"/></g><g stroke="none" fill="#000" transform="matrix(-1.8369701987210297e-16,-1,1,-1.8369701987210297e-16,564.3231169237398,406.4140359138571)" style="stroke: none; fill: rgb(0, 0, 0); stroke-width: 1;"><path d=" M5.36,-2.57 L0,0 L5.36,2.57 Z"/></g></g><g class="arrow-line"><path class="connection real" stroke-dasharray="" d="  M80.62,367.59 L80.62,248.63" style="stroke: rgb(0, 0, 0); stroke-width: 1; fill: none; fill-opacity: 1;"/><g stroke="none" fill="#000" transform="matrix(3.061616997868383e-16,1,-1,3.061616997868383e-16,80.61899294456273,245.62862854582056)" style="stroke: none; fill: rgb(0, 0, 0); stroke-width: 1;"><path d=" M3.57,-1.72 L0,0 L3.57,1.72 Z"/></g><g stroke="none" fill="#000" transform="matrix(-1.8369701987210297e-16,-1,1,-1.8369701987210297e-16,80.6189929445627,370.5867550980717)" style="stroke: none; fill: rgb(0, 0, 0); stroke-width: 1;"><path d=" M3.57,-1.72 L0,0 L3.57,1.72 Z"/></g></g><g class="arrow-line"><path class="connection real" stroke-dasharray="" d="  M117.86,227.78 L103.12,227.78" style="stroke: rgb(0, 0, 0); stroke-width: 1; fill: none; fill-opacity: 1;"/><g stroke="none" fill="#000" transform="matrix(1,-2.4492935982947064e-16,2.4492935982947064e-16,1,100.1243571024778,227.7774676097846)" style="stroke: none; fill: rgb(0, 0, 0); stroke-width: 1;"><path d=" M3.57,-1.72 L0,0 L3.57,1.72 Z"/></g><g stroke="none" fill="#000" transform="matrix(-1,1.2246467991473532e-16,-1.2246467991473532e-16,-1,120.85642623786029,227.77746760978462)" style="stroke: none; fill: rgb(0, 0, 0); stroke-width: 1;"><path d=" M3.57,-1.72 L0,0 L3.57,1.72 Z"/></g></g><g class="arrow-line"><path class="connection real" stroke-dasharray="" d="  M698.03,491.97 L678.9,491.97" style="stroke: rgb(0, 0, 0); stroke-width: 1; fill: none; fill-opacity: 1;"/><g stroke="none" fill="#000" transform="matrix(1,-2.4492935982947064e-16,2.4492935982947064e-16,1,675.8957008438313,491.9746494631159)" style="stroke: none; fill: rgb(0, 0, 0); stroke-width: 1;"><path d=" M3.57,-1.72 L0,0 L3.57,1.72 Z"/></g><g stroke="none" fill="#000" transform="matrix(-1,1.2246467991473532e-16,-1.2246467991473532e-16,-1,701.0301332626728,491.9746494631159)" style="stroke: none; fill: rgb(0, 0, 0); stroke-width: 1;"><path d=" M3.57,-1.72 L0,0 L3.57,1.72 Z"/></g></g><g class="arrow-line"><path class="connection real" stroke-dasharray="" d="  M396.17,124.24 L396.17,491.97" style="stroke: rgb(0, 0, 0); stroke-width: 1; fill: none; fill-opacity: 1;"/></g><g/></g><g/><g><g><rect rx="0" ry="0" x="95.84870689975625" y="277.6076918219461" width="18" height="61" style="stroke: none; stroke-opacity: 1; stroke-width: 1; fill: rgb(65, 117, 5); fill-opacity: 1;"/></g><g><rect rx="0" ry="0" x="81.90595364737383" y="204.90330274334582" width="60.000000000000014" height="18" style="stroke: none; stroke-opacity: 1; stroke-width: 1; fill: rgb(65, 117, 5); fill-opacity: 1;"/></g><g><rect rx="0" ry="0" x="576.5557609022438" y="159.14495451965485" width="101" height="18" style="stroke: none; stroke-opacity: 1; stroke-width: 1; fill: rgb(65, 117, 5); fill-opacity: 1;"/></g><g><rect rx="0" ry="0" x="645.4629170532523" y="499.77774194952156" width="87" height="18" style="stroke: none; stroke-opacity: 1; stroke-width: 1; fill: rgb(65, 117, 5); fill-opacity: 1;"/></g><g><rect rx="0" ry="0" x="222.85912176154204" y="330.5621046425344" width="150" height="18" style="stroke: none; stroke-opacity: 1; stroke-width: 1; fill: rgb(65, 117, 5); fill-opacity: 1;"/></g></g><g/></svg>
        <svg xmlns="http://www.w3.org/2000/svg" xmlns:xlink="http://www.w3.org/1999/xlink" width="772" height="576.2625122070312" style="width:772px;height:576.2625122070312px;font-family:Asana-Math, Asana;background:transparent;"><g><g><g><g transform="matrix(1,0,0,1,380.96246337890625,61.762518310546874)"><path transform="matrix(0.0119,0,0,-0.0119,0,0)" d="M251 722L239 733C187 707 151 698 79 691L75 670L123 670C147 670 157 663 157 648C157 645 157 640 154 622C143 567 70 182 55 132C42 82 36 52 36 31C36 6 47 -9 66 -9C92 -9 128 12 226 85L216 103L190 86C161 67 139 56 129 56C122 56 116 66 116 76C116 82 117 89 120 104ZM605 111L581 94C528 56 480 36 444 36C397 36 368 73 368 133C368 158 371 185 376 214C393 218 502 248 527 259C612 296 651 342 651 404C651 451 617 482 567 482C499 496 389 423 352 349C322 299 292 180 292 113C292 35 336 -11 408 -11C465 -11 521 17 613 92ZM390 274C407 343 427 386 456 412C474 428 505 440 529 440C558 440 577 420 577 388C577 344 542 297 490 272C462 258 426 247 381 237ZM689 388L696 368L728 389C765 412 768 414 775 414C786 414 793 404 793 389C793 338 752 145 711 2L718 -9C743 -2 766 4 788 8C807 134 828 199 874 268C928 352 1003 414 1048 414C1059 414 1065 405 1065 390C1065 372 1062 351 1054 319L1002 107C993 70 989 47 989 31C989 6 1000 -9 1019 -9C1045 -9 1081 12 1179 85L1169 103L1143 86C1114 67 1092 56 1082 56C1075 56 1069 65 1069 76C1069 81 1070 92 1071 96L1137 372C1144 401 1148 429 1148 446C1148 469 1137 482 1117 482C1075 482 1006 444 947 389C909 354 881 320 829 247L867 408C871 426 873 438 873 449C873 470 865 482 850 482C829 482 790 460 717 408ZM1495 482C1428 482 1275 419 1275 259C1275 182 1320 136 1397 136C1405 136 1416 136 1427 137L1386 99C1370 84 1359 66 1359 52C1359 42 1366 31 1380 19C1311 -4 1183 -48 1183 -159C1183 -230 1253 -276 1362 -276C1491 -276 1604 -204 1604 -121C1604 -85 1583 -49 1540 -14L1480 35C1446 62 1433 81 1433 100C1433 114 1448 128 1460 146C1558 170 1629 253 1629 342C1629 357 1626 376 1625 380C1642 378 1650 378 1659 378C1676 378 1686 379 1709 382L1718 427L1715 433C1687 426 1667 424 1613 424C1613 425 1589 482 1495 482ZM1396 1L1473 -58C1519 -94 1538 -121 1538 -154C1538 -206 1469 -248 1386 -248C1304 -248 1247 -206 1247 -145C1247 -43 1357 -11 1396 1ZM1470 448C1528 448 1557 412 1557 341C1557 238 1509 168 1439 168C1378 168 1346 209 1346 288C1346 383 1397 448 1470 448ZM1844 390L1788 107C1787 99 1775 61 1775 31C1775 6 1786 -9 1805 -9C1840 -9 1875 11 1953 74L1984 99L1974 117L1929 86C1900 66 1880 56 1869 56C1860 56 1855 64 1855 76C1855 102 1869 183 1898 328L1911 390L2018 390L2029 440C1991 436 1957 434 1919 434C1935 528 1946 577 1964 631L1953 646C1933 634 1906 622 1875 610L1850 440C1806 419 1780 408 1762 403L1760 390ZM2287 722L2275 733C2230 711 2189 697 2115 691L2111 670L2159 670C2177 670 2193 667 2193 647C2193 641 2193 632 2191 622L2149 388C2129 272 2087 80 2061 2L2068 -9L2137 7C2145 64 2159 164 2199 236C2244 317 2347 414 2389 414C2400 414 2411 407 2411 393C2411 375 2406 342 2396 303L2345 107C2339 85 2332 55 2332 31C2332 6 2342 -9 2363 -9C2395 -9 2463 41 2522 85L2512 103L2486 86C2463 71 2437 56 2425 56C2418 56 2412 65 2412 76C2412 88 2415 101 2419 116L2483 372C2489 398 2494 423 2494 447C2494 464 2488 482 2462 482C2427 482 2350 437 2282 374C2249 343 2223 308 2195 273L2191 275Z" stroke="rgb(0,0,0)" stroke-opacity="1" stroke-width="8" fill="rgb(0,0,0)" fill-opacity="1"></path></g></g></g></g><g><g><g><g transform="matrix(1,0,0,1,35.9375,312.0000366210937)"><path transform="matrix(0.0119,0,0,-0.0119,0,0)" d="M167 420C188 420 201 421 226 424C171 350 72 266 72 126C72 44 107 -11 160 -11C224 -11 276 44 350 187C341 143 338 118 338 95C338 32 367 -11 412 -11C546 -11 699 238 699 384C699 441 673 482 637 482C624 482 612 478 604 470L554 423L565 404C574 410 583 413 592 413C619 413 635 390 635 350C635 205 538 39 453 39C424 39 403 79 403 134C403 181 412 247 424 290L476 474L469 482L395 460L366 311C354 249 340 209 311 155C271 80 233 39 203 39C168 39 145 78 145 136C145 255 186 352 285 464L275 482C255 473 242 470 214 470C186 470 144 472 115 475L103 476C97 477 92 477 91 477C79 477 70 475 59 470C45 443 34 407 21 352L43 352L60 394C67 411 87 422 111 422C145 422 128 420 167 420ZM755 388L762 368L794 389C831 412 834 414 841 414C851 414 859 404 859 391C859 384 855 361 851 347L785 107C777 76 772 49 772 30C772 6 783 -9 802 -9C828 -9 864 12 962 85L952 103L926 86C897 67 874 56 865 56C858 56 852 66 852 76C852 86 854 95 859 116L936 420C940 437 942 448 942 456C942 473 933 482 917 482C895 482 858 461 783 408ZM949 712C920 712 891 679 891 645C891 620 906 604 930 604C961 604 985 633 985 671C985 695 970 712 949 712ZM1481 722L1469 733C1417 707 1381 698 1309 691L1305 670L1353 670C1377 670 1387 663 1387 646C1387 638 1386 629 1385 622L1357 468C1327 477 1300 482 1275 482C1206 482 1112 410 1066 323C1035 265 1015 170 1015 86C1015 21 1030 -11 1059 -11C1086 -11 1123 6 1157 33C1211 77 1244 116 1311 217L1288 126C1277 82 1272 50 1272 24C1272 3 1281 -9 1298 -9C1315 -9 1339 3 1373 28L1454 88L1444 107L1400 76C1386 66 1370 59 1361 59C1353 59 1347 68 1347 82C1347 90 1348 99 1355 128ZM1112 59C1096 59 1087 73 1087 98C1087 224 1133 380 1182 418C1195 428 1214 433 1241 433C1285 433 1314 427 1347 410L1335 351C1298 171 1157 59 1112 59ZM1622 390L1566 107C1565 99 1553 61 1553 31C1553 6 1564 -9 1583 -9C1618 -9 1653 11 1731 74L1762 99L1752 117L1707 86C1678 66 1658 56 1647 56C1638 56 1633 64 1633 76C1633 102 1647 183 1676 328L1689 390L1796 390L1807 440C1769 436 1735 434 1697 434C1713 528 1724 577 1742 631L1731 646C1711 634 1684 622 1653 610L1628 440C1584 419 1558 408 1540 403L1538 390ZM2065 722L2053 733C2008 711 1967 697 1893 691L1889 670L1937 670C1955 670 1971 667 1971 647C1971 641 1971 632 1969 622L1927 388C1907 272 1865 80 1839 2L1846 -9L1915 7C1923 64 1937 164 1977 236C2022 317 2125 414 2167 414C2178 414 2189 407 2189 393C2189 375 2184 342 2174 303L2123 107C2117 85 2110 55 2110 31C2110 6 2120 -9 2141 -9C2173 -9 2241 41 2300 85L2290 103L2264 86C2241 71 2215 56 2203 56C2196 56 2190 65 2190 76C2190 88 2193 101 2197 116L2261 372C2267 398 2272 423 2272 447C2272 464 2266 482 2240 482C2205 482 2128 437 2060 374C2027 343 2001 308 1973 273L1969 275Z" stroke="rgb(0,0,0)" stroke-opacity="1" stroke-width="8" fill="rgb(0,0,0)" fill-opacity="1"></path></g></g></g></g><g transform="matrix(-1.8369701987210297e-16,-1,1,-1.8369701987210297e-16,-204.35008573532104,413.8749880790711)"><g><g><g transform="matrix(1,0,0,1,78.074951171875,313.0749877929687)"><path transform="matrix(0.0119,0,0,-0.0119,0,0)" d="M275 482C208 482 55 419 55 259C55 182 100 136 177 136C185 136 196 136 207 137L166 99C150 84 139 66 139 52C139 42 146 31 160 19C91 -4 -37 -48 -37 -159C-37 -230 33 -276 142 -276C271 -276 384 -204 384 -121C384 -85 363 -49 320 -14L260 35C226 62 213 81 213 100C213 114 228 128 240 146C338 170 409 253 409 342C409 357 406 376 405 380C422 378 430 378 439 378C456 378 466 379 489 382L498 427L495 433C467 426 447 424 393 424C393 425 369 482 275 482ZM176 1L253 -58C299 -94 318 -121 318 -154C318 -206 249 -248 166 -248C84 -248 27 -206 27 -145C27 -43 137 -11 176 1ZM250 448C308 448 337 412 337 341C337 238 289 168 219 168C158 168 126 209 126 288C126 383 177 448 250 448ZM516 152C516 46 561 -11 644 -11C699 -11 759 15 804 57C866 116 910 230 910 331C910 425 860 482 777 482C673 482 516 382 516 152ZM740 444C801 444 834 399 834 315C834 219 803 113 759 60C741 39 715 27 684 27C626 27 592 72 592 151C592 264 631 387 680 427C693 438 716 444 740 444ZM1213 204L1184 77C1180 60 1178 42 1178 26C1178 4 1187 -9 1202 -9C1225 -9 1266 17 1348 85L1341 106C1317 86 1288 59 1266 59C1257 59 1251 68 1251 82C1251 87 1251 90 1252 93L1344 472L1334 481L1301 463C1260 478 1243 482 1216 482C1188 482 1168 477 1141 464C1079 433 1046 403 1021 354C977 265 946 145 946 67C946 23 961 -11 980 -11C1017 -11 1097 41 1213 204ZM1261 414C1239 305 1220 253 1186 201C1129 117 1068 59 1036 59C1024 59 1018 72 1018 99C1018 163 1046 280 1081 360C1105 415 1128 433 1176 433C1199 433 1217 429 1261 414ZM1636 722L1624 733C1572 707 1536 698 1464 691L1460 670L1508 670C1532 670 1542 663 1542 648C1542 645 1542 640 1539 622C1528 567 1455 182 1440 132C1427 82 1421 52 1421 31C1421 6 1432 -9 1451 -9C1477 -9 1513 12 1611 85L1601 103L1575 86C1546 67 1524 56 1514 56C1507 56 1501 66 1501 76C1501 82 1502 89 1505 104ZM2162 -125L2162 -75L1662 -75L1662 -125ZM2328 420C2349 420 2362 421 2387 424C2332 350 2233 266 2233 126C2233 44 2268 -11 2321 -11C2385 -11 2437 44 2511 187C2502 143 2499 118 2499 95C2499 32 2528 -11 2573 -11C2707 -11 2860 238 2860 384C2860 441 2834 482 2798 482C2785 482 2773 478 2765 470L2715 423L2726 404C2735 410 2744 413 2753 413C2780 413 2796 390 2796 350C2796 205 2699 39 2614 39C2585 39 2564 79 2564 134C2564 181 2573 247 2585 290L2637 474L2630 482L2556 460L2527 311C2515 249 2501 209 2472 155C2432 80 2394 39 2364 39C2329 39 2306 78 2306 136C2306 255 2347 352 2446 464L2436 482C2416 473 2403 470 2375 470C2347 470 2305 472 2276 475L2264 476C2258 477 2253 477 2252 477C2240 477 2231 475 2220 470C2206 443 2195 407 2182 352L2204 352L2221 394C2228 411 2248 422 2272 422C2306 422 2289 420 2328 420ZM2916 388L2923 368L2955 389C2992 412 2995 414 3002 414C3012 414 3020 404 3020 391C3020 384 3016 361 3012 347L2946 107C2938 76 2933 49 2933 30C2933 6 2944 -9 2963 -9C2989 -9 3025 12 3123 85L3113 103L3087 86C3058 67 3035 56 3026 56C3019 56 3013 66 3013 76C3013 86 3015 95 3020 116L3097 420C3101 437 3103 448 3103 456C3103 473 3094 482 3078 482C3056 482 3019 461 2944 408ZM3110 712C3081 712 3052 679 3052 645C3052 620 3067 604 3091 604C3122 604 3146 633 3146 671C3146 695 3131 712 3110 712ZM3642 722L3630 733C3578 707 3542 698 3470 691L3466 670L3514 670C3538 670 3548 663 3548 646C3548 638 3547 629 3546 622L3518 468C3488 477 3461 482 3436 482C3367 482 3273 410 3227 323C3196 265 3176 170 3176 86C3176 21 3191 -11 3220 -11C3247 -11 3284 6 3318 33C3372 77 3405 116 3472 217L3449 126C3438 82 3433 50 3433 24C3433 3 3442 -9 3459 -9C3476 -9 3500 3 3534 28L3615 88L3605 107L3561 76C3547 66 3531 59 3522 59C3514 59 3508 68 3508 82C3508 90 3509 99 3516 128ZM3273 59C3257 59 3248 73 3248 98C3248 224 3294 380 3343 418C3356 428 3375 433 3402 433C3446 433 3475 427 3508 410L3496 351C3459 171 3318 59 3273 59ZM3783 390L3727 107C3726 99 3714 61 3714 31C3714 6 3725 -9 3744 -9C3779 -9 3814 11 3892 74L3923 99L3913 117L3868 86C3839 66 3819 56 3808 56C3799 56 3794 64 3794 76C3794 102 3808 183 3837 328L3850 390L3957 390L3968 440C3930 436 3896 434 3858 434C3874 528 3885 577 3903 631L3892 646C3872 634 3845 622 3814 610L3789 440C3745 419 3719 408 3701 403L3699 390ZM4226 722L4214 733C4169 711 4128 697 4054 691L4050 670L4098 670C4116 670 4132 667 4132 647C4132 641 4132 632 4130 622L4088 388C4068 272 4026 80 4000 2L4007 -9L4076 7C4084 64 4098 164 4138 236C4183 317 4286 414 4328 414C4339 414 4350 407 4350 393C4350 375 4345 342 4335 303L4284 107C4278 85 4271 55 4271 31C4271 6 4281 -9 4302 -9C4334 -9 4402 41 4461 85L4451 103L4425 86C4402 71 4376 56 4364 56C4357 56 4351 65 4351 76C4351 88 4354 101 4358 116L4422 372C4428 398 4433 423 4433 447C4433 464 4427 482 4401 482C4366 482 4289 437 4221 374C4188 343 4162 308 4134 273L4130 275Z" stroke="rgb(0,0,0)" stroke-opacity="1" stroke-width="8" fill="rgb(0,0,0)" fill-opacity="1"></path></g></g></g></g><g><g><g><g transform="matrix(1,0,0,1,85.699951171875,217.79999389648438)"><path transform="matrix(0.0119,0,0,-0.0119,0,0)" d="M275 482C208 482 55 419 55 259C55 182 100 136 177 136C185 136 196 136 207 137L166 99C150 84 139 66 139 52C139 42 146 31 160 19C91 -4 -37 -48 -37 -159C-37 -230 33 -276 142 -276C271 -276 384 -204 384 -121C384 -85 363 -49 320 -14L260 35C226 62 213 81 213 100C213 114 228 128 240 146C338 170 409 253 409 342C409 357 406 376 405 380C422 378 430 378 439 378C456 378 466 379 489 382L498 427L495 433C467 426 447 424 393 424C393 425 369 482 275 482ZM176 1L253 -58C299 -94 318 -121 318 -154C318 -206 249 -248 166 -248C84 -248 27 -206 27 -145C27 -43 137 -11 176 1ZM250 448C308 448 337 412 337 341C337 238 289 168 219 168C158 168 126 209 126 288C126 383 177 448 250 448ZM516 152C516 46 561 -11 644 -11C699 -11 759 15 804 57C866 116 910 230 910 331C910 425 860 482 777 482C673 482 516 382 516 152ZM740 444C801 444 834 399 834 315C834 219 803 113 759 60C741 39 715 27 684 27C626 27 592 72 592 151C592 264 631 387 680 427C693 438 716 444 740 444ZM1213 204L1184 77C1180 60 1178 42 1178 26C1178 4 1187 -9 1202 -9C1225 -9 1266 17 1348 85L1341 106C1317 86 1288 59 1266 59C1257 59 1251 68 1251 82C1251 87 1251 90 1252 93L1344 472L1334 481L1301 463C1260 478 1243 482 1216 482C1188 482 1168 477 1141 464C1079 433 1046 403 1021 354C977 265 946 145 946 67C946 23 961 -11 980 -11C1017 -11 1097 41 1213 204ZM1261 414C1239 305 1220 253 1186 201C1129 117 1068 59 1036 59C1024 59 1018 72 1018 99C1018 163 1046 280 1081 360C1105 415 1128 433 1176 433C1199 433 1217 429 1261 414ZM1636 722L1624 733C1572 707 1536 698 1464 691L1460 670L1508 670C1532 670 1542 663 1542 648C1542 645 1542 640 1539 622C1528 567 1455 182 1440 132C1427 82 1421 52 1421 31C1421 6 1432 -9 1451 -9C1477 -9 1513 12 1611 85L1601 103L1575 86C1546 67 1524 56 1514 56C1507 56 1501 66 1501 76C1501 82 1502 89 1505 104ZM2162 -125L2162 -75L1662 -75L1662 -125ZM2644 722L2632 733C2580 707 2544 698 2472 691L2468 670L2516 670C2540 670 2550 663 2550 646C2550 638 2549 629 2548 622L2520 468C2490 477 2463 482 2438 482C2369 482 2275 410 2229 323C2198 265 2178 170 2178 86C2178 21 2193 -11 2222 -11C2249 -11 2286 6 2320 33C2374 77 2407 116 2474 217L2451 126C2440 82 2435 50 2435 24C2435 3 2444 -9 2461 -9C2478 -9 2502 3 2536 28L2617 88L2607 107L2563 76C2549 66 2533 59 2524 59C2516 59 2510 68 2510 82C2510 90 2511 99 2518 128ZM2275 59C2259 59 2250 73 2250 98C2250 224 2296 380 2345 418C2358 428 2377 433 2404 433C2448 433 2477 427 2510 410L2498 351C2461 171 2320 59 2275 59ZM2988 111L2964 94C2911 56 2863 36 2827 36C2780 36 2751 73 2751 133C2751 158 2754 185 2759 214C2776 218 2885 248 2910 259C2995 296 3034 342 3034 404C3034 451 3000 482 2950 482C2882 496 2772 423 2735 349C2705 299 2675 180 2675 113C2675 35 2719 -11 2791 -11C2848 -11 2904 17 2996 92ZM2773 274C2790 343 2810 386 2839 412C2857 428 2888 440 2912 440C2941 440 2960 420 2960 388C2960 344 2925 297 2873 272C2845 258 2809 247 2764 237ZM3224 -11C3280 -11 3395 62 3438 125C3479 186 3513 296 3513 371C3513 438 3490 482 3454 482C3412 482 3359 456 3307 409C3266 374 3246 348 3210 289L3234 408C3237 425 3239 440 3239 452C3239 471 3231 482 3217 482C3196 482 3158 461 3084 408L3056 388L3063 368L3095 389C3123 407 3134 412 3143 412C3153 412 3160 403 3160 389C3160 381 3158 361 3156 351L3098 8C3088 -52 3069 -143 3049 -233L3041 -270L3048 -276C3069 -269 3089 -264 3121 -259L3163 3C3184 -4 3206 -11 3224 -11ZM3191 165C3213 293 3320 424 3403 424C3429 424 3441 402 3441 356C3441 275 3401 156 3348 80C3328 51 3296 36 3255 36C3224 36 3199 43 3173 59ZM3672 390L3616 107C3615 99 3603 61 3603 31C3603 6 3614 -9 3633 -9C3668 -9 3703 11 3781 74L3812 99L3802 117L3757 86C3728 66 3708 56 3697 56C3688 56 3683 64 3683 76C3683 102 3697 183 3726 328L3739 390L3846 390L3857 440C3819 436 3785 434 3747 434C3763 528 3774 577 3792 631L3781 646C3761 634 3734 622 3703 610L3678 440C3634 419 3608 408 3590 403L3588 390ZM4115 722L4103 733C4058 711 4017 697 3943 691L3939 670L3987 670C4005 670 4021 667 4021 647C4021 641 4021 632 4019 622L3977 388C3957 272 3915 80 3889 2L3896 -9L3965 7C3973 64 3987 164 4027 236C4072 317 4175 414 4217 414C4228 414 4239 407 4239 393C4239 375 4234 342 4224 303L4173 107C4167 85 4160 55 4160 31C4160 6 4170 -9 4191 -9C4223 -9 4291 41 4350 85L4340 103L4314 86C4291 71 4265 56 4253 56C4246 56 4240 65 4240 76C4240 88 4243 101 4247 116L4311 372C4317 398 4322 423 4322 447C4322 464 4316 482 4290 482C4255 482 4178 437 4110 374C4077 343 4051 308 4023 273L4019 275Z" stroke="rgb(0,0,0)" stroke-opacity="1" stroke-width="8" fill="rgb(0,0,0)" fill-opacity="1"></path></g></g></g></g><g><g><g><g transform="matrix(1,0,0,1,580.3500366210938,172.03751220703126)"><path transform="matrix(0.0119,0,0,-0.0119,0,0)" d="M176 -11C232 -11 347 62 390 125C431 186 465 296 465 371C465 438 442 482 406 482C364 482 311 456 259 409C218 374 198 348 162 289L186 408C189 425 191 440 191 452C191 471 183 482 169 482C148 482 110 461 36 408L8 388L15 368L47 389C75 407 86 412 95 412C105 412 112 403 112 389C112 381 110 361 108 351L50 8C40 -52 21 -143 1 -233L-7 -270L0 -276C21 -269 41 -264 73 -259L115 3C136 -4 158 -11 176 -11ZM143 165C165 293 272 424 355 424C381 424 393 402 393 356C393 275 353 156 300 80C280 51 248 36 207 36C176 36 151 43 125 59ZM827 111L803 94C750 56 702 36 666 36C619 36 590 73 590 133C590 158 593 185 598 214C615 218 724 248 749 259C834 296 873 342 873 404C873 451 839 482 789 482C721 496 611 423 574 349C544 299 514 180 514 113C514 35 558 -11 630 -11C687 -11 743 17 835 92ZM612 274C629 343 649 386 678 412C696 428 727 440 751 440C780 440 799 420 799 388C799 344 764 297 712 272C684 258 648 247 603 237ZM911 388L918 368L950 389C987 412 990 414 997 414C1008 414 1015 404 1015 389C1015 338 974 145 933 2L940 -9C965 -2 988 4 1010 8C1029 134 1050 199 1096 268C1150 352 1225 414 1270 414C1281 414 1287 405 1287 390C1287 372 1284 351 1276 319L1224 107C1215 70 1211 47 1211 31C1211 6 1222 -9 1241 -9C1267 -9 1303 12 1401 85L1391 103L1365 86C1336 67 1314 56 1304 56C1297 56 1291 65 1291 76C1291 81 1292 92 1293 96L1359 372C1366 401 1370 429 1370 446C1370 469 1359 482 1339 482C1297 482 1228 444 1169 389C1131 354 1103 320 1051 247L1089 408C1093 426 1095 438 1095 449C1095 470 1087 482 1072 482C1051 482 1012 460 939 408ZM1713 204L1684 77C1680 60 1678 42 1678 26C1678 4 1687 -9 1702 -9C1725 -9 1766 17 1848 85L1841 106C1817 86 1788 59 1766 59C1757 59 1751 68 1751 82C1751 87 1751 90 1752 93L1844 472L1834 481L1801 463C1760 478 1743 482 1716 482C1688 482 1668 477 1641 464C1579 433 1546 403 1521 354C1477 265 1446 145 1446 67C1446 23 1461 -11 1480 -11C1517 -11 1597 41 1713 204ZM1761 414C1739 305 1720 253 1686 201C1629 117 1568 59 1536 59C1524 59 1518 72 1518 99C1518 163 1546 280 1581 360C1605 415 1628 433 1676 433C1699 433 1717 429 1761 414ZM2136 722L2124 733C2072 707 2036 698 1964 691L1960 670L2008 670C2032 670 2042 663 2042 648C2042 645 2042 640 2039 622C2028 567 1955 182 1940 132C1927 82 1921 52 1921 31C1921 6 1932 -9 1951 -9C1977 -9 2013 12 2111 85L2101 103L2075 86C2046 67 2024 56 2014 56C2007 56 2001 66 2001 76C2001 82 2002 89 2005 104ZM2287 390L2231 107C2230 99 2218 61 2218 31C2218 6 2229 -9 2248 -9C2283 -9 2318 11 2396 74L2427 99L2417 117L2372 86C2343 66 2323 56 2312 56C2303 56 2298 64 2298 76C2298 102 2312 183 2341 328L2354 390L2461 390L2472 440C2434 436 2400 434 2362 434C2378 528 2389 577 2407 631L2396 646C2376 634 2349 622 2318 610L2293 440C2249 419 2223 408 2205 403L2203 390ZM2487 -180C2486 -187 2486 -193 2486 -198C2486 -241 2523 -276 2568 -276C2674 -276 2784 -152 2843 33L2984 473L2973 482C2944 471 2921 465 2899 463L2864 331C2852 284 2817 211 2784 162C2749 111 2700 67 2678 67C2666 67 2657 90 2658 115L2674 322C2676 353 2678 391 2678 419C2678 464 2671 482 2654 482C2641 482 2627 475 2579 442L2497 386L2508 368L2558 398C2563 401 2574 410 2583 410C2597 410 2605 391 2605 358C2605 357 2605 351 2604 343L2587 100L2586 60C2586 18 2604 -11 2629 -11C2666 -11 2750 74 2825 187L2776 16C2725 -161 2675 -234 2605 -234C2570 -234 2543 -207 2543 -172C2543 -167 2544 -159 2545 -150L2535 -146ZM3493 -125L3493 -75L2993 -75L2993 -125ZM3763 204L3734 77C3730 60 3728 42 3728 26C3728 4 3737 -9 3752 -9C3775 -9 3816 17 3898 85L3891 106C3867 86 3838 59 3816 59C3807 59 3801 68 3801 82C3801 87 3801 90 3802 93L3894 472L3884 481L3851 463C3810 478 3793 482 3766 482C3738 482 3718 477 3691 464C3629 433 3596 403 3571 354C3527 265 3496 145 3496 67C3496 23 3511 -11 3530 -11C3567 -11 3647 41 3763 204ZM3811 414C3789 305 3770 253 3736 201C3679 117 3618 59 3586 59C3574 59 3568 72 3568 99C3568 163 3596 280 3631 360C3655 415 3678 433 3726 433C3749 433 3767 429 3811 414ZM4303 365C4306 403 4311 435 4319 476C4308 481 4304 482 4299 482C4268 482 4237 458 4201 407C4162 351 4123 291 4107 256L4139 408C4143 425 4145 438 4145 450C4145 470 4137 482 4122 482C4101 482 4063 461 3989 408L3961 388L3968 368L4000 389C4028 407 4039 412 4048 412C4058 412 4065 403 4065 390C4065 332 4022 126 3982 -2L3992 -9C4007 -4 4023 -1 4046 4L4059 6L4085 126C4103 209 4126 262 4170 319C4204 363 4231 384 4253 384C4268 384 4278 379 4289 365ZM4651 111L4627 94C4574 56 4526 36 4490 36C4443 36 4414 73 4414 133C4414 158 4417 185 4422 214C4439 218 4548 248 4573 259C4658 296 4697 342 4697 404C4697 451 4663 482 4613 482C4545 496 4435 423 4398 349C4368 299 4338 180 4338 113C4338 35 4382 -11 4454 -11C4511 -11 4567 17 4659 92ZM4436 274C4453 343 4473 386 4502 412C4520 428 4551 440 4575 440C4604 440 4623 420 4623 388C4623 344 4588 297 4536 272C4508 258 4472 247 4427 237ZM4982 204L4953 77C4949 60 4947 42 4947 26C4947 4 4956 -9 4971 -9C4994 -9 5035 17 5117 85L5110 106C5086 86 5057 59 5035 59C5026 59 5020 68 5020 82C5020 87 5020 90 5021 93L5113 472L5103 481L5070 463C5029 478 5012 482 4985 482C4957 482 4937 477 4910 464C4848 433 4815 403 4790 354C4746 265 4715 145 4715 67C4715 23 4730 -11 4749 -11C4786 -11 4866 41 4982 204ZM5030 414C5008 305 4989 253 4955 201C4898 117 4837 59 4805 59C4793 59 4787 72 4787 99C4787 163 4815 280 4850 360C4874 415 4897 433 4945 433C4968 433 4986 429 5030 414ZM5654 -125L5654 -75L5154 -75L5154 -125ZM6136 722L6124 733C6072 707 6036 698 5964 691L5960 670L6008 670C6032 670 6042 663 6042 646C6042 638 6041 629 6040 622L6012 468C5982 477 5955 482 5930 482C5861 482 5767 410 5721 323C5690 265 5670 170 5670 86C5670 21 5685 -11 5714 -11C5741 -11 5778 6 5812 33C5866 77 5899 116 5966 217L5943 126C5932 82 5927 50 5927 24C5927 3 5936 -9 5953 -9C5970 -9 5994 3 6028 28L6109 88L6099 107L6055 76C6041 66 6025 59 6016 59C6008 59 6002 68 6002 82C6002 90 6003 99 6010 128ZM5767 59C5751 59 5742 73 5742 98C5742 224 5788 380 5837 418C5850 428 5869 433 5896 433C5940 433 5969 427 6002 410L5990 351C5953 171 5812 59 5767 59ZM6480 111L6456 94C6403 56 6355 36 6319 36C6272 36 6243 73 6243 133C6243 158 6246 185 6251 214C6268 218 6377 248 6402 259C6487 296 6526 342 6526 404C6526 451 6492 482 6442 482C6374 496 6264 423 6227 349C6197 299 6167 180 6167 113C6167 35 6211 -11 6283 -11C6340 -11 6396 17 6488 92ZM6265 274C6282 343 6302 386 6331 412C6349 428 6380 440 6404 440C6433 440 6452 420 6452 388C6452 344 6417 297 6365 272C6337 258 6301 247 6256 237ZM6716 -11C6772 -11 6887 62 6930 125C6971 186 7005 296 7005 371C7005 438 6982 482 6946 482C6904 482 6851 456 6799 409C6758 374 6738 348 6702 289L6726 408C6729 425 6731 440 6731 452C6731 471 6723 482 6709 482C6688 482 6650 461 6576 408L6548 388L6555 368L6587 389C6615 407 6626 412 6635 412C6645 412 6652 403 6652 389C6652 381 6650 361 6648 351L6590 8C6580 -52 6561 -143 6541 -233L6533 -270L6540 -276C6561 -269 6581 -264 6613 -259L6655 3C6676 -4 6698 -11 6716 -11ZM6683 165C6705 293 6812 424 6895 424C6921 424 6933 402 6933 356C6933 275 6893 156 6840 80C6820 51 6788 36 6747 36C6716 36 6691 43 6665 59ZM7164 390L7108 107C7107 99 7095 61 7095 31C7095 6 7106 -9 7125 -9C7160 -9 7195 11 7273 74L7304 99L7294 117L7249 86C7220 66 7200 56 7189 56C7180 56 7175 64 7175 76C7175 102 7189 183 7218 328L7231 390L7338 390L7349 440C7311 436 7277 434 7239 434C7255 528 7266 577 7284 631L7273 646C7253 634 7226 622 7195 610L7170 440C7126 419 7100 408 7082 403L7080 390ZM7607 722L7595 733C7550 711 7509 697 7435 691L7431 670L7479 670C7497 670 7513 667 7513 647C7513 641 7513 632 7511 622L7469 388C7449 272 7407 80 7381 2L7388 -9L7457 7C7465 64 7479 164 7519 236C7564 317 7667 414 7709 414C7720 414 7731 407 7731 393C7731 375 7726 342 7716 303L7665 107C7659 85 7652 55 7652 31C7652 6 7662 -9 7683 -9C7715 -9 7783 41 7842 85L7832 103L7806 86C7783 71 7757 56 7745 56C7738 56 7732 65 7732 76C7732 88 7735 101 7739 116L7803 372C7809 398 7814 423 7814 447C7814 464 7808 482 7782 482C7747 482 7670 437 7602 374C7569 343 7543 308 7515 273L7511 275Z" stroke="rgb(0,0,0)" stroke-opacity="1" stroke-width="8" fill="rgb(0,0,0)" fill-opacity="1"></path></g></g></g></g><g transform="matrix(6.123233995736766e-17,1,-1,6.123233995736766e-17,856.9750247001648,-240.2999997138977)"><g><g><g transform="matrix(1,0,0,1,501.20001220703125,312.3000244140625)"><path transform="matrix(0.0119,0,0,-0.0119,0,0)" d="M176 -11C232 -11 347 62 390 125C431 186 465 296 465 371C465 438 442 482 406 482C364 482 311 456 259 409C218 374 198 348 162 289L186 408C189 425 191 440 191 452C191 471 183 482 169 482C148 482 110 461 36 408L8 388L15 368L47 389C75 407 86 412 95 412C105 412 112 403 112 389C112 381 110 361 108 351L50 8C40 -52 21 -143 1 -233L-7 -270L0 -276C21 -269 41 -264 73 -259L115 3C136 -4 158 -11 176 -11ZM143 165C165 293 272 424 355 424C381 424 393 402 393 356C393 275 353 156 300 80C280 51 248 36 207 36C176 36 151 43 125 59ZM827 111L803 94C750 56 702 36 666 36C619 36 590 73 590 133C590 158 593 185 598 214C615 218 724 248 749 259C834 296 873 342 873 404C873 451 839 482 789 482C721 496 611 423 574 349C544 299 514 180 514 113C514 35 558 -11 630 -11C687 -11 743 17 835 92ZM612 274C629 343 649 386 678 412C696 428 727 440 751 440C780 440 799 420 799 388C799 344 764 297 712 272C684 258 648 247 603 237ZM911 388L918 368L950 389C987 412 990 414 997 414C1008 414 1015 404 1015 389C1015 338 974 145 933 2L940 -9C965 -2 988 4 1010 8C1029 134 1050 199 1096 268C1150 352 1225 414 1270 414C1281 414 1287 405 1287 390C1287 372 1284 351 1276 319L1224 107C1215 70 1211 47 1211 31C1211 6 1222 -9 1241 -9C1267 -9 1303 12 1401 85L1391 103L1365 86C1336 67 1314 56 1304 56C1297 56 1291 65 1291 76C1291 81 1292 92 1293 96L1359 372C1366 401 1370 429 1370 446C1370 469 1359 482 1339 482C1297 482 1228 444 1169 389C1131 354 1103 320 1051 247L1089 408C1093 426 1095 438 1095 449C1095 470 1087 482 1072 482C1051 482 1012 460 939 408ZM1713 204L1684 77C1680 60 1678 42 1678 26C1678 4 1687 -9 1702 -9C1725 -9 1766 17 1848 85L1841 106C1817 86 1788 59 1766 59C1757 59 1751 68 1751 82C1751 87 1751 90 1752 93L1844 472L1834 481L1801 463C1760 478 1743 482 1716 482C1688 482 1668 477 1641 464C1579 433 1546 403 1521 354C1477 265 1446 145 1446 67C1446 23 1461 -11 1480 -11C1517 -11 1597 41 1713 204ZM1761 414C1739 305 1720 253 1686 201C1629 117 1568 59 1536 59C1524 59 1518 72 1518 99C1518 163 1546 280 1581 360C1605 415 1628 433 1676 433C1699 433 1717 429 1761 414ZM2136 722L2124 733C2072 707 2036 698 1964 691L1960 670L2008 670C2032 670 2042 663 2042 648C2042 645 2042 640 2039 622C2028 567 1955 182 1940 132C1927 82 1921 52 1921 31C1921 6 1932 -9 1951 -9C1977 -9 2013 12 2111 85L2101 103L2075 86C2046 67 2024 56 2014 56C2007 56 2001 66 2001 76C2001 82 2002 89 2005 104ZM2287 390L2231 107C2230 99 2218 61 2218 31C2218 6 2229 -9 2248 -9C2283 -9 2318 11 2396 74L2427 99L2417 117L2372 86C2343 66 2323 56 2312 56C2303 56 2298 64 2298 76C2298 102 2312 183 2341 328L2354 390L2461 390L2472 440C2434 436 2400 434 2362 434C2378 528 2389 577 2407 631L2396 646C2376 634 2349 622 2318 610L2293 440C2249 419 2223 408 2205 403L2203 390ZM2487 -180C2486 -187 2486 -193 2486 -198C2486 -241 2523 -276 2568 -276C2674 -276 2784 -152 2843 33L2984 473L2973 482C2944 471 2921 465 2899 463L2864 331C2852 284 2817 211 2784 162C2749 111 2700 67 2678 67C2666 67 2657 90 2658 115L2674 322C2676 353 2678 391 2678 419C2678 464 2671 482 2654 482C2641 482 2627 475 2579 442L2497 386L2508 368L2558 398C2563 401 2574 410 2583 410C2597 410 2605 391 2605 358C2605 357 2605 351 2604 343L2587 100L2586 60C2586 18 2604 -11 2629 -11C2666 -11 2750 74 2825 187L2776 16C2725 -161 2675 -234 2605 -234C2570 -234 2543 -207 2543 -172C2543 -167 2544 -159 2545 -150L2535 -146ZM3493 -125L3493 -75L2993 -75L2993 -125ZM3763 204L3734 77C3730 60 3728 42 3728 26C3728 4 3737 -9 3752 -9C3775 -9 3816 17 3898 85L3891 106C3867 86 3838 59 3816 59C3807 59 3801 68 3801 82C3801 87 3801 90 3802 93L3894 472L3884 481L3851 463C3810 478 3793 482 3766 482C3738 482 3718 477 3691 464C3629 433 3596 403 3571 354C3527 265 3496 145 3496 67C3496 23 3511 -11 3530 -11C3567 -11 3647 41 3763 204ZM3811 414C3789 305 3770 253 3736 201C3679 117 3618 59 3586 59C3574 59 3568 72 3568 99C3568 163 3596 280 3631 360C3655 415 3678 433 3726 433C3749 433 3767 429 3811 414ZM4303 365C4306 403 4311 435 4319 476C4308 481 4304 482 4299 482C4268 482 4237 458 4201 407C4162 351 4123 291 4107 256L4139 408C4143 425 4145 438 4145 450C4145 470 4137 482 4122 482C4101 482 4063 461 3989 408L3961 388L3968 368L4000 389C4028 407 4039 412 4048 412C4058 412 4065 403 4065 390C4065 332 4022 126 3982 -2L3992 -9C4007 -4 4023 -1 4046 4L4059 6L4085 126C4103 209 4126 262 4170 319C4204 363 4231 384 4253 384C4268 384 4278 379 4289 365ZM4651 111L4627 94C4574 56 4526 36 4490 36C4443 36 4414 73 4414 133C4414 158 4417 185 4422 214C4439 218 4548 248 4573 259C4658 296 4697 342 4697 404C4697 451 4663 482 4613 482C4545 496 4435 423 4398 349C4368 299 4338 180 4338 113C4338 35 4382 -11 4454 -11C4511 -11 4567 17 4659 92ZM4436 274C4453 343 4473 386 4502 412C4520 428 4551 440 4575 440C4604 440 4623 420 4623 388C4623 344 4588 297 4536 272C4508 258 4472 247 4427 237ZM4982 204L4953 77C4949 60 4947 42 4947 26C4947 4 4956 -9 4971 -9C4994 -9 5035 17 5117 85L5110 106C5086 86 5057 59 5035 59C5026 59 5020 68 5020 82C5020 87 5020 90 5021 93L5113 472L5103 481L5070 463C5029 478 5012 482 4985 482C4957 482 4937 477 4910 464C4848 433 4815 403 4790 354C4746 265 4715 145 4715 67C4715 23 4730 -11 4749 -11C4786 -11 4866 41 4982 204ZM5030 414C5008 305 4989 253 4955 201C4898 117 4837 59 4805 59C4793 59 4787 72 4787 99C4787 163 4815 280 4850 360C4874 415 4897 433 4945 433C4968 433 4986 429 5030 414ZM5654 -125L5654 -75L5154 -75L5154 -125ZM5820 420C5841 420 5854 421 5879 424C5824 350 5725 266 5725 126C5725 44 5760 -11 5813 -11C5877 -11 5929 44 6003 187C5994 143 5991 118 5991 95C5991 32 6020 -11 6065 -11C6199 -11 6352 238 6352 384C6352 441 6326 482 6290 482C6277 482 6265 478 6257 470L6207 423L6218 404C6227 410 6236 413 6245 413C6272 413 6288 390 6288 350C6288 205 6191 39 6106 39C6077 39 6056 79 6056 134C6056 181 6065 247 6077 290L6129 474L6122 482L6048 460L6019 311C6007 249 5993 209 5964 155C5924 80 5886 39 5856 39C5821 39 5798 78 5798 136C5798 255 5839 352 5938 464L5928 482C5908 473 5895 470 5867 470C5839 470 5797 472 5768 475L5756 476C5750 477 5745 477 5744 477C5732 477 5723 475 5712 470C5698 443 5687 407 5674 352L5696 352L5713 394C5720 411 5740 422 5764 422C5798 422 5781 420 5820 420ZM6408 388L6415 368L6447 389C6484 412 6487 414 6494 414C6504 414 6512 404 6512 391C6512 384 6508 361 6504 347L6438 107C6430 76 6425 49 6425 30C6425 6 6436 -9 6455 -9C6481 -9 6517 12 6615 85L6605 103L6579 86C6550 67 6527 56 6518 56C6511 56 6505 66 6505 76C6505 86 6507 95 6512 116L6589 420C6593 437 6595 448 6595 456C6595 473 6586 482 6570 482C6548 482 6511 461 6436 408ZM6602 712C6573 712 6544 679 6544 645C6544 620 6559 604 6583 604C6614 604 6638 633 6638 671C6638 695 6623 712 6602 712ZM7134 722L7122 733C7070 707 7034 698 6962 691L6958 670L7006 670C7030 670 7040 663 7040 646C7040 638 7039 629 7038 622L7010 468C6980 477 6953 482 6928 482C6859 482 6765 410 6719 323C6688 265 6668 170 6668 86C6668 21 6683 -11 6712 -11C6739 -11 6776 6 6810 33C6864 77 6897 116 6964 217L6941 126C6930 82 6925 50 6925 24C6925 3 6934 -9 6951 -9C6968 -9 6992 3 7026 28L7107 88L7097 107L7053 76C7039 66 7023 59 7014 59C7006 59 7000 68 7000 82C7000 90 7001 99 7008 128ZM6765 59C6749 59 6740 73 6740 98C6740 224 6786 380 6835 418C6848 428 6867 433 6894 433C6938 433 6967 427 7000 410L6988 351C6951 171 6810 59 6765 59ZM7275 390L7219 107C7218 99 7206 61 7206 31C7206 6 7217 -9 7236 -9C7271 -9 7306 11 7384 74L7415 99L7405 117L7360 86C7331 66 7311 56 7300 56C7291 56 7286 64 7286 76C7286 102 7300 183 7329 328L7342 390L7449 390L7460 440C7422 436 7388 434 7350 434C7366 528 7377 577 7395 631L7384 646C7364 634 7337 622 7306 610L7281 440C7237 419 7211 408 7193 403L7191 390ZM7718 722L7706 733C7661 711 7620 697 7546 691L7542 670L7590 670C7608 670 7624 667 7624 647C7624 641 7624 632 7622 622L7580 388C7560 272 7518 80 7492 2L7499 -9L7568 7C7576 64 7590 164 7630 236C7675 317 7778 414 7820 414C7831 414 7842 407 7842 393C7842 375 7837 342 7827 303L7776 107C7770 85 7763 55 7763 31C7763 6 7773 -9 7794 -9C7826 -9 7894 41 7953 85L7943 103L7917 86C7894 71 7868 56 7856 56C7849 56 7843 65 7843 76C7843 88 7846 101 7850 116L7914 372C7920 398 7925 423 7925 447C7925 464 7919 482 7893 482C7858 482 7781 437 7713 374C7680 343 7654 308 7626 273L7622 275Z" stroke="rgb(0,0,0)" stroke-opacity="1" stroke-width="8" fill="rgb(0,0,0)" fill-opacity="1"></path></g></g></g></g><g><g><g><g transform="matrix(1,0,0,1,649.2625122070312,512.6750244140625)"><path transform="matrix(0.0119,0,0,-0.0119,0,0)" d="M235 722L223 733C171 707 135 698 63 691L59 670L107 670C131 670 141 663 141 646C141 639 140 628 139 622L38 71C37 68 37 64 37 61C37 22 85 -11 140 -11C177 -11 228 8 271 39C367 107 433 244 433 376C433 414 424 453 412 468C405 477 392 482 377 482C353 482 323 474 295 460C244 433 211 403 149 324ZM322 424C348 424 361 401 361 352C361 288 340 202 310 137C277 68 237 36 183 36C137 36 112 59 112 101C112 135 127 276 208 361C241 395 293 424 322 424ZM479 152C479 46 524 -11 607 -11C662 -11 722 15 767 57C829 116 873 230 873 331C873 425 823 482 740 482C636 482 479 382 479 152ZM703 444C764 444 797 399 797 315C797 219 766 113 722 60C704 39 678 27 647 27C589 27 555 72 555 151C555 264 594 387 643 427C656 438 679 444 703 444ZM1397 473L1390 482L1322 465L1312 414C1297 336 1272 268 1241 221C1182 130 1104 59 1064 59C1056 59 1051 68 1051 85C1051 99 1053 112 1058 137L1115 408C1118 424 1120 438 1120 451C1120 470 1111 482 1097 482C1077 482 1039 461 965 408L937 388L944 368L976 389C1004 407 1015 412 1024 412C1033 412 1041 403 1041 392C1041 388 1040 378 1039 374L976 77C974 68 972 44 972 30C972 7 987 -11 1007 -11C1070 -11 1191 101 1275 239L1238 97C1231 73 1227 46 1227 31C1227 6 1238 -9 1257 -9C1283 -9 1319 12 1417 85L1407 103L1381 86C1357 70 1331 59 1320 59C1312 59 1307 66 1307 76C1307 112 1382 416 1397 473ZM1484 388L1491 368L1523 389C1560 412 1563 414 1570 414C1581 414 1588 404 1588 389C1588 338 1547 145 1506 2L1513 -9C1538 -2 1561 4 1583 8C1602 134 1623 199 1669 268C1723 352 1798 414 1843 414C1854 414 1860 405 1860 390C1860 372 1857 351 1849 319L1797 107C1788 70 1784 47 1784 31C1784 6 1795 -9 1814 -9C1840 -9 1876 12 1974 85L1964 103L1938 86C1909 67 1887 56 1877 56C1870 56 1864 65 1864 76C1864 81 1865 92 1866 96L1932 372C1939 401 1943 429 1943 446C1943 469 1932 482 1912 482C1870 482 1801 444 1742 389C1704 354 1676 320 1624 247L1662 408C1666 426 1668 438 1668 449C1668 470 1660 482 1645 482C1624 482 1585 460 1512 408ZM2498 722L2486 733C2434 707 2398 698 2326 691L2322 670L2370 670C2394 670 2404 663 2404 646C2404 638 2403 629 2402 622L2374 468C2344 477 2317 482 2292 482C2223 482 2129 410 2083 323C2052 265 2032 170 2032 86C2032 21 2047 -11 2076 -11C2103 -11 2140 6 2174 33C2228 77 2261 116 2328 217L2305 126C2294 82 2289 50 2289 24C2289 3 2298 -9 2315 -9C2332 -9 2356 3 2390 28L2471 88L2461 107L2417 76C2403 66 2387 59 2378 59C2370 59 2364 68 2364 82C2364 90 2365 99 2372 128ZM2129 59C2113 59 2104 73 2104 98C2104 224 2150 380 2199 418C2212 428 2231 433 2258 433C2302 433 2331 427 2364 410L2352 351C2315 171 2174 59 2129 59ZM2785 204L2756 77C2752 60 2750 42 2750 26C2750 4 2759 -9 2774 -9C2797 -9 2838 17 2920 85L2913 106C2889 86 2860 59 2838 59C2829 59 2823 68 2823 82C2823 87 2823 90 2824 93L2916 472L2906 481L2873 463C2832 478 2815 482 2788 482C2760 482 2740 477 2713 464C2651 433 2618 403 2593 354C2549 265 2518 145 2518 67C2518 23 2533 -11 2552 -11C2589 -11 2669 41 2785 204ZM2833 414C2811 305 2792 253 2758 201C2701 117 2640 59 2608 59C2596 59 2590 72 2590 99C2590 163 2618 280 2653 360C2677 415 2700 433 2748 433C2771 433 2789 429 2833 414ZM3325 365C3328 403 3333 435 3341 476C3330 481 3326 482 3321 482C3290 482 3259 458 3223 407C3184 351 3145 291 3129 256L3161 408C3165 425 3167 438 3167 450C3167 470 3159 482 3144 482C3123 482 3085 461 3011 408L2983 388L2990 368L3022 389C3050 407 3061 412 3070 412C3080 412 3087 403 3087 390C3087 332 3044 126 3004 -2L3014 -9C3029 -4 3045 -1 3068 4L3081 6L3107 126C3125 209 3148 262 3192 319C3226 363 3253 384 3275 384C3290 384 3300 379 3311 365ZM3338 -180C3337 -187 3337 -193 3337 -198C3337 -241 3374 -276 3419 -276C3525 -276 3635 -152 3694 33L3835 473L3824 482C3795 471 3772 465 3750 463L3715 331C3703 284 3668 211 3635 162C3600 111 3551 67 3529 67C3517 67 3508 90 3509 115L3525 322C3527 353 3529 391 3529 419C3529 464 3522 482 3505 482C3492 482 3478 475 3430 442L3348 386L3359 368L3409 398C3414 401 3425 410 3434 410C3448 410 3456 391 3456 358C3456 357 3456 351 3455 343L3438 100L3437 60C3437 18 3455 -11 3480 -11C3517 -11 3601 74 3676 187L3627 16C3576 -161 3526 -234 3456 -234C3421 -234 3394 -207 3394 -172C3394 -167 3395 -159 3396 -150L3386 -146ZM4344 -125L4344 -75L3844 -75L3844 -125ZM4510 420C4531 420 4544 421 4569 424C4514 350 4415 266 4415 126C4415 44 4450 -11 4503 -11C4567 -11 4619 44 4693 187C4684 143 4681 118 4681 95C4681 32 4710 -11 4755 -11C4889 -11 5042 238 5042 384C5042 441 5016 482 4980 482C4967 482 4955 478 4947 470L4897 423L4908 404C4917 410 4926 413 4935 413C4962 413 4978 390 4978 350C4978 205 4881 39 4796 39C4767 39 4746 79 4746 134C4746 181 4755 247 4767 290L4819 474L4812 482L4738 460L4709 311C4697 249 4683 209 4654 155C4614 80 4576 39 4546 39C4511 39 4488 78 4488 136C4488 255 4529 352 4628 464L4618 482C4598 473 4585 470 4557 470C4529 470 4487 472 4458 475L4446 476C4440 477 4435 477 4434 477C4422 477 4413 475 4402 470C4388 443 4377 407 4364 352L4386 352L4403 394C4410 411 4430 422 4454 422C4488 422 4471 420 4510 420ZM5098 388L5105 368L5137 389C5174 412 5177 414 5184 414C5194 414 5202 404 5202 391C5202 384 5198 361 5194 347L5128 107C5120 76 5115 49 5115 30C5115 6 5126 -9 5145 -9C5171 -9 5207 12 5305 85L5295 103L5269 86C5240 67 5217 56 5208 56C5201 56 5195 66 5195 76C5195 86 5197 95 5202 116L5279 420C5283 437 5285 448 5285 456C5285 473 5276 482 5260 482C5238 482 5201 461 5126 408ZM5292 712C5263 712 5234 679 5234 645C5234 620 5249 604 5273 604C5304 604 5328 633 5328 671C5328 695 5313 712 5292 712ZM5824 722L5812 733C5760 707 5724 698 5652 691L5648 670L5696 670C5720 670 5730 663 5730 646C5730 638 5729 629 5728 622L5700 468C5670 477 5643 482 5618 482C5549 482 5455 410 5409 323C5378 265 5358 170 5358 86C5358 21 5373 -11 5402 -11C5429 -11 5466 6 5500 33C5554 77 5587 116 5654 217L5631 126C5620 82 5615 50 5615 24C5615 3 5624 -9 5641 -9C5658 -9 5682 3 5716 28L5797 88L5787 107L5743 76C5729 66 5713 59 5704 59C5696 59 5690 68 5690 82C5690 90 5691 99 5698 128ZM5455 59C5439 59 5430 73 5430 98C5430 224 5476 380 5525 418C5538 428 5557 433 5584 433C5628 433 5657 427 5690 410L5678 351C5641 171 5500 59 5455 59ZM5965 390L5909 107C5908 99 5896 61 5896 31C5896 6 5907 -9 5926 -9C5961 -9 5996 11 6074 74L6105 99L6095 117L6050 86C6021 66 6001 56 5990 56C5981 56 5976 64 5976 76C5976 102 5990 183 6019 328L6032 390L6139 390L6150 440C6112 436 6078 434 6040 434C6056 528 6067 577 6085 631L6074 646C6054 634 6027 622 5996 610L5971 440C5927 419 5901 408 5883 403L5881 390ZM6408 722L6396 733C6351 711 6310 697 6236 691L6232 670L6280 670C6298 670 6314 667 6314 647C6314 641 6314 632 6312 622L6270 388C6250 272 6208 80 6182 2L6189 -9L6258 7C6266 64 6280 164 6320 236C6365 317 6468 414 6510 414C6521 414 6532 407 6532 393C6532 375 6527 342 6517 303L6466 107C6460 85 6453 55 6453 31C6453 6 6463 -9 6484 -9C6516 -9 6584 41 6643 85L6633 103L6607 86C6584 71 6558 56 6546 56C6539 56 6533 65 6533 76C6533 88 6536 101 6540 116L6604 372C6610 398 6615 423 6615 447C6615 464 6609 482 6583 482C6548 482 6471 437 6403 374C6370 343 6344 308 6316 273L6312 275Z" stroke="rgb(0,0,0)" stroke-opacity="1" stroke-width="8" fill="rgb(0,0,0)" fill-opacity="1"></path></g></g></g></g><g><g><g><g transform="matrix(1,0,0,1,226.64996337890625,343.4499877929687)"><path transform="matrix(0.0119,0,0,-0.0119,0,0)" d="M275 482C208 482 55 419 55 259C55 182 100 136 177 136C185 136 196 136 207 137L166 99C150 84 139 66 139 52C139 42 146 31 160 19C91 -4 -37 -48 -37 -159C-37 -230 33 -276 142 -276C271 -276 384 -204 384 -121C384 -85 363 -49 320 -14L260 35C226 62 213 81 213 100C213 114 228 128 240 146C338 170 409 253 409 342C409 357 406 376 405 380C422 378 430 378 439 378C456 378 466 379 489 382L498 427L495 433C467 426 447 424 393 424C393 425 369 482 275 482ZM176 1L253 -58C299 -94 318 -121 318 -154C318 -206 249 -248 166 -248C84 -248 27 -206 27 -145C27 -43 137 -11 176 1ZM250 448C308 448 337 412 337 341C337 238 289 168 219 168C158 168 126 209 126 288C126 383 177 448 250 448ZM516 152C516 46 561 -11 644 -11C699 -11 759 15 804 57C866 116 910 230 910 331C910 425 860 482 777 482C673 482 516 382 516 152ZM740 444C801 444 834 399 834 315C834 219 803 113 759 60C741 39 715 27 684 27C626 27 592 72 592 151C592 264 631 387 680 427C693 438 716 444 740 444ZM1213 204L1184 77C1180 60 1178 42 1178 26C1178 4 1187 -9 1202 -9C1225 -9 1266 17 1348 85L1341 106C1317 86 1288 59 1266 59C1257 59 1251 68 1251 82C1251 87 1251 90 1252 93L1344 472L1334 481L1301 463C1260 478 1243 482 1216 482C1188 482 1168 477 1141 464C1079 433 1046 403 1021 354C977 265 946 145 946 67C946 23 961 -11 980 -11C1017 -11 1097 41 1213 204ZM1261 414C1239 305 1220 253 1186 201C1129 117 1068 59 1036 59C1024 59 1018 72 1018 99C1018 163 1046 280 1081 360C1105 415 1128 433 1176 433C1199 433 1217 429 1261 414ZM1636 722L1624 733C1572 707 1536 698 1464 691L1460 670L1508 670C1532 670 1542 663 1542 648C1542 645 1542 640 1539 622C1528 567 1455 182 1440 132C1427 82 1421 52 1421 31C1421 6 1432 -9 1451 -9C1477 -9 1513 12 1611 85L1601 103L1575 86C1546 67 1524 56 1514 56C1507 56 1501 66 1501 76C1501 82 1502 89 1505 104ZM2162 -125L2162 -75L1662 -75L1662 -125ZM2503 330L2526 330C2534 395 2541 432 2550 458C2526 473 2491 482 2454 482C2409 483 2336 463 2279 400C2225 352 2186 241 2186 136C2186 40 2228 -11 2308 -11C2362 -11 2410 9 2465 54L2515 95L2507 115L2492 105C2420 57 2382 40 2347 40C2291 40 2262 80 2262 159C2262 267 2297 371 2346 409C2367 425 2391 433 2422 433C2467 433 2503 414 2503 390ZM2895 111L2871 94C2818 56 2770 36 2734 36C2687 36 2658 73 2658 133C2658 158 2661 185 2666 214C2683 218 2792 248 2817 259C2902 296 2941 342 2941 404C2941 451 2907 482 2857 482C2789 496 2679 423 2642 349C2612 299 2582 180 2582 113C2582 35 2626 -11 2698 -11C2755 -11 2811 17 2903 92ZM2680 274C2697 343 2717 386 2746 412C2764 428 2795 440 2819 440C2848 440 2867 420 2867 388C2867 344 2832 297 2780 272C2752 258 2716 247 2671 237ZM2979 388L2986 368L3018 389C3055 412 3058 414 3065 414C3076 414 3083 404 3083 389C3083 338 3042 145 3001 2L3008 -9C3033 -2 3056 4 3078 8C3097 134 3118 199 3164 268C3218 352 3293 414 3338 414C3349 414 3355 405 3355 390C3355 372 3352 351 3344 319L3292 107C3283 70 3279 47 3279 31C3279 6 3290 -9 3309 -9C3335 -9 3371 12 3469 85L3459 103L3433 86C3404 67 3382 56 3372 56C3365 56 3359 65 3359 76C3359 81 3360 92 3361 96L3427 372C3434 401 3438 429 3438 446C3438 469 3427 482 3407 482C3365 482 3296 444 3237 389C3199 354 3171 320 3119 247L3157 408C3161 426 3163 438 3163 449C3163 470 3155 482 3140 482C3119 482 3080 460 3007 408ZM3635 390L3579 107C3578 99 3566 61 3566 31C3566 6 3577 -9 3596 -9C3631 -9 3666 11 3744 74L3775 99L3765 117L3720 86C3691 66 3671 56 3660 56C3651 56 3646 64 3646 76C3646 102 3660 183 3689 328L3702 390L3809 390L3820 440C3782 436 3748 434 3710 434C3726 528 3737 577 3755 631L3744 646C3724 634 3697 622 3666 610L3641 440C3597 419 3571 408 3553 403L3551 390ZM4170 111L4146 94C4093 56 4045 36 4009 36C3962 36 3933 73 3933 133C3933 158 3936 185 3941 214C3958 218 4067 248 4092 259C4177 296 4216 342 4216 404C4216 451 4182 482 4132 482C4064 496 3954 423 3917 349C3887 299 3857 180 3857 113C3857 35 3901 -11 3973 -11C4030 -11 4086 17 4178 92ZM3955 274C3972 343 3992 386 4021 412C4039 428 4070 440 4094 440C4123 440 4142 420 4142 388C4142 344 4107 297 4055 272C4027 258 3991 247 3946 237ZM4598 365C4601 403 4606 435 4614 476C4603 481 4599 482 4594 482C4563 482 4532 458 4496 407C4457 351 4418 291 4402 256L4434 408C4438 425 4440 438 4440 450C4440 470 4432 482 4417 482C4396 482 4358 461 4284 408L4256 388L4263 368L4295 389C4323 407 4334 412 4343 412C4353 412 4360 403 4360 390C4360 332 4317 126 4277 -2L4287 -9C4302 -4 4318 -1 4341 4L4354 6L4380 126C4398 209 4421 262 4465 319C4499 363 4526 384 4548 384C4563 384 4573 379 4584 365ZM5118 -125L5118 -75L4618 -75L4618 -125ZM5242 390L5186 107C5185 99 5173 61 5173 31C5173 6 5184 -9 5203 -9C5238 -9 5273 11 5351 74L5382 99L5372 117L5327 86C5298 66 5278 56 5267 56C5258 56 5253 64 5253 76C5253 102 5267 183 5296 328L5309 390L5416 390L5427 440C5389 436 5355 434 5317 434C5333 528 5344 577 5362 631L5351 646C5331 634 5304 622 5273 610L5248 440C5204 419 5178 408 5160 403L5158 390ZM5466 152C5466 46 5511 -11 5594 -11C5649 -11 5709 15 5754 57C5816 116 5860 230 5860 331C5860 425 5810 482 5727 482C5623 482 5466 382 5466 152ZM5690 444C5751 444 5784 399 5784 315C5784 219 5753 113 5709 60C5691 39 5665 27 5634 27C5576 27 5542 72 5542 151C5542 264 5581 387 5630 427C5643 438 5666 444 5690 444ZM6392 -125L6392 -75L5892 -75L5892 -125ZM6567 -11C6623 -11 6738 62 6781 125C6822 186 6856 296 6856 371C6856 438 6833 482 6797 482C6755 482 6702 456 6650 409C6609 374 6589 348 6553 289L6577 408C6580 425 6582 440 6582 452C6582 471 6574 482 6560 482C6539 482 6501 461 6427 408L6399 388L6406 368L6438 389C6466 407 6477 412 6486 412C6496 412 6503 403 6503 389C6503 381 6501 361 6499 351L6441 8C6431 -52 6412 -143 6392 -233L6384 -270L6391 -276C6412 -269 6432 -264 6464 -259L6506 3C6527 -4 6549 -11 6567 -11ZM6534 165C6556 293 6663 424 6746 424C6772 424 6784 402 6784 356C6784 275 6744 156 6691 80C6671 51 6639 36 6598 36C6567 36 6542 43 6516 59ZM7218 111L7194 94C7141 56 7093 36 7057 36C7010 36 6981 73 6981 133C6981 158 6984 185 6989 214C7006 218 7115 248 7140 259C7225 296 7264 342 7264 404C7264 451 7230 482 7180 482C7112 496 7002 423 6965 349C6935 299 6905 180 6905 113C6905 35 6949 -11 7021 -11C7078 -11 7134 17 7226 92ZM7003 274C7020 343 7040 386 7069 412C7087 428 7118 440 7142 440C7171 440 7190 420 7190 388C7190 344 7155 297 7103 272C7075 258 7039 247 6994 237ZM7302 388L7309 368L7341 389C7378 412 7381 414 7388 414C7399 414 7406 404 7406 389C7406 338 7365 145 7324 2L7331 -9C7356 -2 7379 4 7401 8C7420 134 7441 199 7487 268C7541 352 7616 414 7661 414C7672 414 7678 405 7678 390C7678 372 7675 351 7667 319L7615 107C7606 70 7602 47 7602 31C7602 6 7613 -9 7632 -9C7658 -9 7694 12 7792 85L7782 103L7756 86C7727 67 7705 56 7695 56C7688 56 7682 65 7682 76C7682 81 7683 92 7684 96L7750 372C7757 401 7761 429 7761 446C7761 469 7750 482 7730 482C7688 482 7619 444 7560 389C7522 354 7494 320 7442 247L7480 408C7484 426 7486 438 7486 449C7486 470 7478 482 7463 482C7442 482 7403 460 7330 408ZM8104 204L8075 77C8071 60 8069 42 8069 26C8069 4 8078 -9 8093 -9C8116 -9 8157 17 8239 85L8232 106C8208 86 8179 59 8157 59C8148 59 8142 68 8142 82C8142 87 8142 90 8143 93L8235 472L8225 481L8192 463C8151 478 8134 482 8107 482C8079 482 8059 477 8032 464C7970 433 7937 403 7912 354C7868 265 7837 145 7837 67C7837 23 7852 -11 7871 -11C7908 -11 7988 41 8104 204ZM8152 414C8130 305 8111 253 8077 201C8020 117 7959 59 7927 59C7915 59 7909 72 7909 99C7909 163 7937 280 7972 360C7996 415 8019 433 8067 433C8090 433 8108 429 8152 414ZM8527 722L8515 733C8463 707 8427 698 8355 691L8351 670L8399 670C8423 670 8433 663 8433 648C8433 645 8433 640 8430 622C8419 567 8346 182 8331 132C8318 82 8312 52 8312 31C8312 6 8323 -9 8342 -9C8368 -9 8404 12 8502 85L8492 103L8466 86C8437 67 8415 56 8405 56C8398 56 8392 66 8392 76C8392 82 8393 89 8396 104ZM8678 390L8622 107C8621 99 8609 61 8609 31C8609 6 8620 -9 8639 -9C8674 -9 8709 11 8787 74L8818 99L8808 117L8763 86C8734 66 8714 56 8703 56C8694 56 8689 64 8689 76C8689 102 8703 183 8732 328L8745 390L8852 390L8863 440C8825 436 8791 434 8753 434C8769 528 8780 577 8798 631L8787 646C8767 634 8740 622 8709 610L8684 440C8640 419 8614 408 8596 403L8594 390ZM8878 -180C8877 -187 8877 -193 8877 -198C8877 -241 8914 -276 8959 -276C9065 -276 9175 -152 9234 33L9375 473L9364 482C9335 471 9312 465 9290 463L9255 331C9243 284 9208 211 9175 162C9140 111 9091 67 9069 67C9057 67 9048 90 9049 115L9065 322C9067 353 9069 391 9069 419C9069 464 9062 482 9045 482C9032 482 9018 475 8970 442L8888 386L8899 368L8949 398C8954 401 8965 410 8974 410C8988 410 8996 391 8996 358C8996 357 8996 351 8995 343L8978 100L8977 60C8977 18 8995 -11 9020 -11C9057 -11 9141 74 9216 187L9167 16C9116 -161 9066 -234 8996 -234C8961 -234 8934 -207 8934 -172C8934 -167 8935 -159 8936 -150L8926 -146ZM9884 -125L9884 -75L9384 -75L9384 -125ZM10613 103L10587 86C10558 67 10536 56 10526 56C10519 56 10513 65 10513 76C10513 86 10515 95 10520 116L10595 413C10599 430 10602 446 10602 454C10602 471 10592 482 10576 482C10547 482 10509 464 10448 421C10385 376 10350 341 10301 272L10331 409C10335 429 10338 444 10338 451C10338 470 10328 482 10312 482C10282 482 10236 460 10181 418C10137 384 10117 363 10052 275L10085 408C10089 424 10091 439 10091 451C10091 470 10082 482 10068 482C10047 482 10009 461 9935 408L9907 388L9914 368C9951 391 9986 414 9993 414C10004 414 10011 404 10011 389C10011 338 9970 145 9929 2L9932 -9L10000 6L10022 108C10046 219 10073 278 10128 338C10170 384 10215 414 10243 414C10250 414 10254 406 10254 393C10254 358 10232 244 10191 69L10175 2L10180 -9L10249 6L10270 113C10286 194 10320 269 10364 318C10419 379 10469 414 10501 414C10509 414 10514 405 10514 389C10514 365 10511 351 10489 264C10449 105 10433 84 10433 31C10433 6 10444 -9 10463 -9C10489 -9 10525 12 10623 85ZM10931 204L10902 77C10898 60 10896 42 10896 26C10896 4 10905 -9 10920 -9C10943 -9 10984 17 11066 85L11059 106C11035 86 11006 59 10984 59C10975 59 10969 68 10969 82C10969 87 10969 90 10970 93L11062 472L11052 481L11019 463C10978 478 10961 482 10934 482C10906 482 10886 477 10859 464C10797 433 10764 403 10739 354C10695 265 10664 145 10664 67C10664 23 10679 -11 10698 -11C10735 -11 10815 41 10931 204ZM10979 414C10957 305 10938 253 10904 201C10847 117 10786 59 10754 59C10742 59 10736 72 10736 99C10736 163 10764 280 10799 360C10823 415 10846 433 10894 433C10917 433 10935 429 10979 414ZM11471 365C11474 403 11479 435 11487 476C11476 481 11472 482 11467 482C11436 482 11405 458 11369 407C11330 351 11291 291 11275 256L11307 408C11311 425 11313 438 11313 450C11313 470 11305 482 11290 482C11269 482 11231 461 11157 408L11129 388L11136 368L11168 389C11196 407 11207 412 11216 412C11226 412 11233 403 11233 390C11233 332 11190 126 11150 -2L11160 -9C11175 -4 11191 -1 11214 4L11227 6L11253 126C11271 209 11294 262 11338 319C11372 363 11399 384 11421 384C11436 384 11446 379 11457 365ZM11731 722L11719 733C11667 707 11631 698 11559 691L11555 670L11603 670C11627 670 11637 663 11637 646C11637 638 11636 629 11635 622L11587 354C11573 279 11557 210 11505 1L11514 -9L11581 8L11604 132C11613 180 11637 225 11671 259C11740 59 11772 -9 11797 -9C11810 -9 11834 4 11878 35L11924 67L11916 86L11873 62C11859 54 11852 52 11844 52C11834 52 11827 58 11818 75C11783 139 11761 193 11722 316L11736 330C11797 391 11843 416 11893 416C11901 416 11912 414 11929 410L11946 473C11928 479 11910 482 11898 482C11832 482 11749 405 11624 230Z" stroke="rgb(0,0,0)" stroke-opacity="1" stroke-width="8" fill="rgb(0,0,0)" fill-opacity="1"></path></g></g></g></g></svg>
</svg>
